<svg width="110" height="64" viewBox="0 0 110 64" fill="none" xmlns="http://www.w3.org/2000/svg">
<g clip-path="url(#clip0_139_13272)">
<path d="M31.4189 23.2436C31.4189 24.5606 31.5612 25.6285 31.8104 26.4116C32.0952 27.1947 32.4511 28.0489 32.9494 28.9744C33.1274 29.2592 33.1986 29.5439 33.1986 29.7931C33.1986 30.1491 32.985 30.505 32.5223 30.861L30.2798 32.356C29.9595 32.5695 29.6391 32.6763 29.3543 32.6763C28.9984 32.6763 28.6424 32.4983 28.2865 32.178C27.7882 31.6441 27.361 31.0745 27.0051 30.505C26.6491 29.8999 26.2932 29.2236 25.9016 28.4049C23.1252 31.6796 19.6369 33.317 15.4367 33.317C12.4467 33.317 10.0618 32.4627 8.31763 30.7542C6.57347 29.0456 5.68359 26.7675 5.68359 23.9199C5.68359 20.8943 6.75145 18.4383 8.92275 16.5873C11.094 14.7364 13.9773 13.8109 17.6435 13.8109C18.8538 13.8109 20.0996 13.9177 21.4166 14.0957C22.7336 14.2736 24.0863 14.5584 25.5101 14.8788V12.2803C25.5101 9.57508 24.9405 7.68854 23.8371 6.58509C22.6981 5.48165 20.7759 4.94772 18.0351 4.94772C16.7893 4.94772 15.5078 5.0901 14.1908 5.41046C12.8738 5.73081 11.5924 6.12236 10.3466 6.62069C9.77703 6.86986 9.34989 7.01224 9.10072 7.08343C8.85156 7.15462 8.67358 7.19021 8.5312 7.19021C8.03287 7.19021 7.7837 6.83426 7.7837 6.08676V4.3426C7.7837 3.77308 7.8549 3.34594 8.03287 3.09677C8.21085 2.84761 8.5312 2.59844 9.02953 2.34928C10.2754 1.70857 11.7704 1.17464 13.5145 0.747497C15.2587 0.284761 17.1096 0.0711902 19.0674 0.0711902C23.3032 0.0711902 26.3999 1.03226 28.3933 2.95439C30.351 4.87653 31.3477 7.79533 31.3477 11.7108V23.2436H31.4189ZM16.9672 28.6541C18.1419 28.6541 19.3521 28.4405 20.6335 28.0134C21.915 27.5862 23.054 26.8031 24.0151 25.7353C24.5846 25.059 25.0117 24.3115 25.2253 23.4572C25.4389 22.6029 25.5813 21.5706 25.5813 20.3604V18.8654C24.549 18.6162 23.4456 18.4027 22.3065 18.2603C21.1675 18.1179 20.064 18.0467 18.9606 18.0467C16.5757 18.0467 14.8315 18.5095 13.6569 19.4705C12.4823 20.4316 11.9127 21.7842 11.9127 23.564C11.9127 25.2369 12.3399 26.4828 13.2298 27.337C14.084 28.2269 15.3299 28.6541 16.9672 28.6541ZM45.5501 32.4983C44.9094 32.4983 44.4823 32.3915 44.1975 32.1424C43.9127 31.9288 43.6636 31.4305 43.45 30.7542L35.0852 3.23915C34.8716 2.52725 34.7648 2.06452 34.7648 1.81535C34.7648 1.24583 35.0496 0.925473 35.6191 0.925473H39.1074C39.7837 0.925473 40.2464 1.03226 40.4956 1.28142C40.7804 1.49499 40.9939 1.99333 41.2075 2.66963L47.1875 26.2336L52.7403 2.66963C52.9183 1.95773 53.1319 1.49499 53.4166 1.28142C53.7014 1.06785 54.1997 0.925473 54.8404 0.925473H57.688C58.3643 0.925473 58.8271 1.03226 59.1118 1.28142C59.3966 1.49499 59.6458 1.99333 59.7882 2.66963L65.4122 26.5184L71.5701 2.66963C71.7837 1.95773 72.0329 1.49499 72.282 1.28142C72.5668 1.06785 73.0295 0.925473 73.6702 0.925473H76.9806C77.5501 0.925473 77.8705 1.21023 77.8705 1.81535C77.8705 1.99333 77.8349 2.1713 77.7993 2.38487C77.7637 2.59844 77.6925 2.8832 77.5501 3.27475L68.9717 30.7898C68.7581 31.5017 68.509 31.9644 68.2242 32.178C67.9394 32.3915 67.4767 32.5339 66.8716 32.5339H63.8104C63.1341 32.5339 62.6714 32.4271 62.3866 32.178C62.1018 31.9288 61.8527 31.4661 61.7103 30.7542L56.1931 7.79533L50.7114 30.7186C50.5334 31.4305 50.3199 31.8932 50.0351 32.1424C49.7503 32.3915 49.252 32.4983 48.6113 32.4983H45.5501ZM91.2898 33.4594C89.4389 33.4594 87.5879 33.2458 85.8082 32.8187C84.0284 32.3915 82.6402 31.9288 81.7147 31.3949C81.1452 31.0745 80.7537 30.7186 80.6113 30.3982C80.4689 30.0779 80.3977 29.7219 80.3977 29.4016V27.5862C80.3977 26.8387 80.6825 26.4828 81.2164 26.4828C81.43 26.4828 81.6436 26.5184 81.8571 26.5895C82.0707 26.6607 82.3911 26.8031 82.747 26.9455C83.9572 27.4794 85.2743 27.9066 86.6625 28.1913C88.0863 28.4761 89.4745 28.6185 90.8983 28.6185C93.1408 28.6185 94.8849 28.2269 96.0952 27.4438C97.3054 26.6607 97.9461 25.5217 97.9461 24.0623C97.9461 23.0656 97.6258 22.2469 96.985 21.5706C96.3443 20.8943 95.1341 20.2892 93.3899 19.7197L88.2286 18.1179C85.6302 17.2992 83.7081 16.089 82.5334 14.4872C81.3588 12.921 80.7537 11.1769 80.7537 9.32592C80.7537 7.83092 81.074 6.5139 81.7147 5.37486C82.3555 4.23582 83.2097 3.23915 84.2776 2.45606C85.3454 1.63737 86.5557 1.03226 87.9795 0.605117C89.4033 0.177975 90.8983 0 92.4645 0C93.2476 0 94.0662 0.0355951 94.8493 0.14238C95.668 0.249166 96.4155 0.391546 97.163 0.533927C97.8749 0.711902 98.5512 0.889878 99.1919 1.10345C99.8326 1.31702 100.331 1.53059 100.687 1.74416C101.185 2.02892 101.541 2.31368 101.755 2.63404C101.968 2.9188 102.075 3.31034 102.075 3.80868V5.48165C102.075 6.22914 101.79 6.62069 101.256 6.62069C100.972 6.62069 100.509 6.47831 99.9038 6.19355C97.8749 5.26808 95.5968 4.80534 93.0696 4.80534C91.0407 4.80534 89.4389 5.1257 88.3354 5.802C87.232 6.47831 86.6625 7.51057 86.6625 8.96997C86.6625 9.96663 87.0184 10.8209 87.7303 11.4972C88.4422 12.1735 89.7592 12.8498 91.6458 13.455L96.7003 15.0567C99.2631 15.8754 101.114 17.0145 102.218 18.4739C103.321 19.9333 103.855 21.6062 103.855 23.4572C103.855 24.9878 103.535 26.376 102.929 27.5862C102.289 28.7964 101.434 29.8643 100.331 30.7186C99.2275 31.6085 97.9105 32.2492 96.3799 32.7119C94.7781 33.2102 93.1052 33.4594 91.2898 33.4594Z" fill="#252F3E"/>
<path fill-rule="evenodd" clip-rule="evenodd" d="M98.0167 50.7587C86.3059 59.4083 69.2915 64.0001 54.6619 64.0001C34.1591 64.0001 15.6852 56.4183 1.73195 43.8176C0.628497 42.821 1.62516 41.4684 2.94218 42.2515C18.0345 51.0079 36.6507 56.3115 55.9077 56.3115C68.8999 56.3115 83.1736 53.6063 96.3082 48.0535C98.2659 47.1636 99.9389 49.3349 98.0167 50.7587Z" fill="#FF9900"/>
<path fill-rule="evenodd" clip-rule="evenodd" d="M102.894 45.2058C101.399 43.2837 92.9981 44.2804 89.1895 44.7431C88.0504 44.8855 87.8724 43.8888 88.9047 43.1413C95.5966 38.4428 106.595 39.7954 107.877 41.3616C109.158 42.9634 107.521 53.9622 101.256 59.2303C100.295 60.049 99.3697 59.6219 99.7968 58.554C101.221 55.0301 104.389 47.0924 102.894 45.2058Z" fill="#FF9900"/>
</g>
<defs>
<clipPath id="clip0_139_13272">
<rect width="109.215" height="64" fill="white" transform="translate(0.286133)"/>
</clipPath>
</defs>
</svg>
