<svg width="65" height="64" viewBox="0 0 65 64" fill="none" xmlns="http://www.w3.org/2000/svg">
<g clip-path="url(#clip0_139_13235)">
<path d="M28.3989 12.9913L17.7049 7.59326L5.96875 13.4505L16.9519 18.9661L28.3989 12.9913Z" fill="#4DABCF"/>
<path d="M33.3006 15.4653L44.5126 21.1247L32.88 26.9665L21.8799 21.4417L33.3006 15.4653Z" fill="#4DABCF"/>
<path d="M48.2751 7.67529L59.7932 13.4506L49.492 18.6244L38.2568 12.9573L48.2751 7.67529Z" fill="#4DABCF"/>
<path d="M43.3176 5.18732L32.9484 -0.0112305L22.6904 5.10691L33.3751 10.4957L43.3176 5.18732Z" fill="#4DABCF"/>
<path d="M35.21 49.8392V63.9891L47.7718 57.7205L47.7579 43.5645L35.21 49.8392Z" fill="#4DABCF"/>
<path d="M47.7533 38.6238L47.7394 24.6162L35.21 30.8446V44.8568L47.7533 38.6238Z" fill="#4DABCF"/>
<path d="M62.8341 35.998V50.2036L52.12 55.5506L52.1123 41.41L62.8341 35.998Z" fill="#4DABCF"/>
<path d="M62.8348 31.0318V17.1123L52.1006 22.4485L52.1099 36.4839L62.8348 31.0318Z" fill="#4DABCF"/>
<path d="M30.7751 30.8446L22.3139 26.5908V44.9774C22.3139 44.9774 11.9663 22.9601 11.0076 20.9825C10.8839 20.7273 10.3752 20.4475 10.2453 20.3794C8.3898 19.4053 2.95312 16.6514 2.95312 16.6514V49.1353L10.4742 53.1556V36.1761C10.4742 36.1761 20.712 55.8492 20.8156 56.0642C20.9192 56.2791 21.9475 58.3526 23.0453 59.0809C24.5081 60.0489 30.7767 63.8187 30.7767 63.8187L30.7751 30.8446Z" fill="#4D77CF"/>
</g>
<defs>
<clipPath id="clip0_139_13235">
<rect width="64" height="64" fill="white" transform="translate(0.527344)"/>
</clipPath>
</defs>
</svg>
