<svg width="65" height="64" viewBox="0 0 65 64" fill="none" xmlns="http://www.w3.org/2000/svg">
<g id="Python logo" clip-path="url(#clip0_139_13222)">
<path id="Vector" d="M31.8537 0.0180664C15.5821 0.0180664 16.5981 7.07438 16.5981 7.07438L16.6161 14.3849H32.1438V16.5798H10.4488C10.4488 16.5798 0.0366211 15.3989 0.0366211 31.8168C0.0366211 48.2352 9.12462 47.6529 9.12462 47.6529H14.5483V40.0341C14.5483 40.0341 14.2559 30.9461 23.4912 30.9461H38.8919C38.8919 30.9461 47.5444 31.0859 47.5444 22.5837V8.5258C47.5444 8.5258 48.8586 0.0180664 31.8537 0.0180664ZM23.2917 4.93427C23.6586 4.93394 24.022 5.00597 24.3611 5.14623C24.7002 5.2865 25.0082 5.49225 25.2677 5.75171C25.5271 6.01116 25.7329 6.31924 25.8732 6.6583C26.0134 6.99736 26.0855 7.36075 26.0851 7.72768C26.0855 8.09461 26.0134 8.458 25.8732 8.79707C25.7329 9.13613 25.5271 9.4442 25.2677 9.70366C25.0082 9.96312 24.7002 10.1689 24.3611 10.3091C24.022 10.4494 23.6586 10.5214 23.2917 10.5211C22.9248 10.5214 22.5614 10.4494 22.2223 10.3091C21.8833 10.1689 21.5752 9.96312 21.3157 9.70366C21.0563 9.4442 20.8505 9.13613 20.7103 8.79707C20.57 8.458 20.498 8.09461 20.4983 7.72768C20.498 7.36075 20.57 6.99736 20.7103 6.6583C20.8505 6.31924 21.0563 6.01116 21.3157 5.75171C21.5752 5.49225 21.8833 5.2865 22.2223 5.14623C22.5614 5.00597 22.9248 4.93394 23.2917 4.93427Z" fill="url(#paint0_linear_139_13222)"/>
<path id="Vector_2" d="M32.3157 63.7804C48.5872 63.7804 47.5712 56.7241 47.5712 56.7241L47.5532 49.4138H32.0253V47.219H53.7203C53.7203 47.219 64.1324 48.3999 64.1324 31.9815C64.1324 15.5633 55.0444 16.1456 55.0444 16.1456H49.6208V23.7641C49.6208 23.7641 49.9131 32.8521 40.6778 32.8521H25.2772C25.2772 32.8521 16.6246 32.7123 16.6246 41.2148V55.273C16.6246 55.273 15.3107 63.7804 32.3154 63.7804H32.3157ZM40.8776 58.8647C40.5107 58.8651 40.1473 58.793 39.8082 58.6528C39.4692 58.5125 39.1611 58.3068 38.9016 58.0473C38.6422 57.7878 38.4364 57.4798 38.2962 57.1407C38.1559 56.8017 38.0839 56.4383 38.0842 56.0713C38.0838 55.7044 38.1558 55.341 38.2961 55.0019C38.4363 54.6628 38.6421 54.3547 38.9015 54.0952C39.161 53.8357 39.4691 53.6299 39.8082 53.4897C40.1472 53.3494 40.5107 53.2773 40.8776 53.2777C41.2445 53.2773 41.6079 53.3494 41.947 53.4896C42.286 53.6299 42.5941 53.8356 42.8536 54.0951C43.113 54.3546 43.3188 54.6626 43.459 55.0017C43.5993 55.3408 43.6713 55.7042 43.671 56.0711C43.6713 56.438 43.5993 56.8014 43.459 57.1405C43.3188 57.4795 43.113 57.7876 42.8536 58.0471C42.5941 58.3065 42.286 58.5123 41.947 58.6525C41.6079 58.7928 41.2445 58.8651 40.8776 58.8647Z" fill="url(#paint1_linear_139_13222)"/>
</g>
<defs>
<linearGradient id="paint0_linear_139_13222" x1="615.996" y1="573.524" x2="3792.39" y2="3718.23" gradientUnits="userSpaceOnUse">
<stop stop-color="#387EB8"/>
<stop offset="1" stop-color="#366994"/>
</linearGradient>
<linearGradient id="paint1_linear_139_13222" x1="925.781" y1="996.473" x2="4336.87" y2="4221.08" gradientUnits="userSpaceOnUse">
<stop stop-color="#FFE052"/>
<stop offset="1" stop-color="#FFC331"/>
</linearGradient>
<clipPath id="clip0_139_13222">
<rect width="64.257" height="64" fill="white"/>
</clipPath>
</defs>
</svg>
