<svg width="18" height="19" viewBox="0 0 18 19" fill="none" xmlns="http://www.w3.org/2000/svg">
<g id="moon">
<path id="Vector" d="M15.7507 10.0925C15.6327 11.3692 15.1536 12.5858 14.3693 13.6001C13.5851 14.6144 12.5283 15.3843 11.3224 15.8199C10.1166 16.2555 8.81165 16.3386 7.56028 16.0596C6.30892 15.7805 5.1629 15.1509 4.25633 14.2443C3.34975 13.3378 2.72011 12.1917 2.44109 10.9404C2.16207 9.68901 2.2452 8.38406 2.68075 7.17822C3.11631 5.97238 3.88628 4.91552 4.90057 4.13131C5.91485 3.3471 7.13151 2.86798 8.40816 2.75C7.66072 3.7612 7.30105 5.00709 7.39456 6.26106C7.48807 7.51503 8.02855 8.69379 8.91771 9.58295C9.80687 10.4721 10.9856 11.0126 12.2396 11.1061C13.4936 11.1996 14.7395 10.8399 15.7507 10.0925Z" stroke="white" stroke-linecap="round" stroke-linejoin="round"/>
</g>
</svg>
