<svg width="42" height="25" viewBox="0 0 42 25" fill="none" xmlns="http://www.w3.org/2000/svg">
<g id="AWS logo" clip-path="url(#clip0_263_5938)">
<path id="Vector" d="M12.5438 8.88334C12.5438 9.37723 12.5972 9.77767 12.6906 10.0713C12.7974 10.365 12.9309 10.6853 13.1178 11.0324C13.1845 11.1392 13.2112 11.246 13.2112 11.3394C13.2112 11.4729 13.1311 11.6064 12.9576 11.7399L12.1166 12.3005C11.9965 12.3806 11.8764 12.4206 11.7696 12.4206C11.6361 12.4206 11.5026 12.3539 11.3692 12.2337C11.1823 12.0335 11.0221 11.8199 10.8886 11.6064C10.7551 11.3795 10.6217 11.1258 10.4748 10.8188C9.43367 12.0469 8.12555 12.6609 6.55046 12.6609C5.42922 12.6609 4.53489 12.3405 3.88083 11.6998C3.22677 11.0591 2.89307 10.2048 2.89307 9.13696C2.89307 8.00237 3.29351 7.08134 4.10775 6.38724C4.92199 5.69313 6.00319 5.34608 7.37805 5.34608C7.83189 5.34608 8.29907 5.38613 8.79295 5.45287C9.28684 5.51961 9.79407 5.62639 10.328 5.74653V4.77211C10.328 3.75765 10.1144 3.0502 9.70063 2.6364C9.27349 2.22261 8.55269 2.02239 7.52488 2.02239C7.05769 2.02239 6.57716 2.07578 6.08328 2.19591C5.5894 2.31605 5.10886 2.46288 4.64168 2.64975C4.42811 2.74319 4.26793 2.79658 4.17449 2.82328C4.08105 2.84997 4.01431 2.86332 3.96092 2.86332C3.77405 2.86332 3.68061 2.72984 3.68061 2.44953V1.79547C3.68061 1.5819 3.7073 1.42172 3.77405 1.32828C3.84079 1.23485 3.96092 1.14141 4.14779 1.04797C4.61498 0.807704 5.1756 0.607482 5.82966 0.447304C6.48372 0.273777 7.17783 0.193689 7.91198 0.193689C9.50041 0.193689 10.6617 0.554089 11.4092 1.27489C12.1433 1.99569 12.5171 3.09024 12.5171 4.55854V8.88334H12.5438ZM7.12443 10.9123C7.56492 10.9123 8.01876 10.8322 8.4993 10.672C8.97983 10.5118 9.40697 10.2182 9.76737 9.81772C9.98094 9.5641 10.1411 9.28379 10.2212 8.96343C10.3013 8.64308 10.3547 8.25598 10.3547 7.80214V7.24152C9.96759 7.14808 9.5538 7.06799 9.12666 7.0146C8.69952 6.96121 8.28573 6.93451 7.87193 6.93451C6.97761 6.93451 6.32354 7.10804 5.88306 7.46844C5.44257 7.82884 5.229 8.33607 5.229 9.00348C5.229 9.63084 5.38917 10.098 5.72288 10.4184C6.04323 10.7521 6.51042 10.9123 7.12443 10.9123ZM17.843 12.3539C17.6027 12.3539 17.4426 12.3138 17.3358 12.2204C17.229 12.1403 17.1356 11.9534 17.0555 11.6998L13.9187 1.38168C13.8386 1.11471 13.7985 0.941186 13.7985 0.847749C13.7985 0.634178 13.9053 0.514044 14.1189 0.514044H15.427C15.6806 0.514044 15.8541 0.554089 15.9476 0.647526C16.0544 0.727615 16.1344 0.91449 16.2145 1.1681L18.457 10.0046L20.5393 1.1681C20.6061 0.901141 20.6862 0.727615 20.793 0.647526C20.8997 0.567437 21.0866 0.514044 21.3269 0.514044H22.3947C22.6483 0.514044 22.8219 0.554089 22.9287 0.647526C23.0354 0.727615 23.1289 0.91449 23.1823 1.1681L25.2913 10.1114L27.6005 1.1681C27.6806 0.901141 27.774 0.727615 27.8675 0.647526C27.9743 0.567437 28.1478 0.514044 28.3881 0.514044H29.6294C29.843 0.514044 29.9631 0.62083 29.9631 0.847749C29.9631 0.914489 29.9498 0.98123 29.9364 1.06132C29.9231 1.14141 29.8964 1.24819 29.843 1.39502L26.6261 11.7132C26.546 11.9801 26.4526 12.1536 26.3458 12.2337C26.239 12.3138 26.0655 12.3672 25.8386 12.3672H24.6906C24.437 12.3672 24.2635 12.3272 24.1567 12.2337C24.0499 12.1403 23.9565 11.9668 23.9031 11.6998L21.8341 3.09024L19.7785 11.6865C19.7118 11.9534 19.6317 12.1269 19.5249 12.2204C19.4181 12.3138 19.2312 12.3539 18.991 12.3539H17.843ZM34.9954 12.7143C34.3013 12.7143 33.6072 12.6342 32.9398 12.474C32.2724 12.3138 31.7518 12.1403 31.4047 11.9401C31.1912 11.8199 31.0443 11.6865 30.991 11.5663C30.9376 11.4462 30.9109 11.3127 30.9109 11.1926V10.5118C30.9109 10.2315 31.0177 10.098 31.2179 10.098C31.298 10.098 31.3781 10.1114 31.4581 10.1381C31.5382 10.1648 31.6584 10.2182 31.7918 10.2716C32.2457 10.4718 32.7396 10.632 33.2601 10.7387C33.7941 10.8455 34.3146 10.8989 34.8486 10.8989C35.6895 10.8989 36.3436 10.7521 36.7974 10.4584C37.2512 10.1648 37.4915 9.73763 37.4915 9.19035C37.4915 8.8166 37.3714 8.5096 37.1311 8.25598C36.8908 8.00237 36.437 7.77545 35.7829 7.56188L33.8475 6.96121C32.873 6.6542 32.1522 6.20036 31.7118 5.5997C31.2713 5.01238 31.0443 4.35832 31.0443 3.66421C31.0443 3.10359 31.1645 2.60971 31.4047 2.18257C31.645 1.75542 31.9654 1.38168 32.3658 1.08802C32.7663 0.781008 33.2201 0.554089 33.754 0.393911C34.288 0.233733 34.8486 0.166992 35.4359 0.166992C35.7295 0.166992 36.0366 0.18034 36.3302 0.220385C36.6372 0.260429 36.9175 0.313822 37.1978 0.367215C37.4648 0.433955 37.7184 0.500696 37.9587 0.580785C38.199 0.660874 38.3858 0.740963 38.5193 0.821052C38.7062 0.927838 38.8397 1.03462 38.9198 1.15476C38.9999 1.26154 39.0399 1.40837 39.0399 1.59525V2.22261C39.0399 2.50292 38.9331 2.64975 38.7329 2.64975C38.6261 2.64975 38.4526 2.59636 38.2257 2.48957C37.4648 2.14252 36.6105 1.96899 35.6628 1.96899C34.902 1.96899 34.3013 2.08913 33.8875 2.34274C33.4737 2.59636 33.2601 2.98345 33.2601 3.53073C33.2601 3.90448 33.3936 4.22483 33.6606 4.47845C33.9276 4.73207 34.4214 4.98568 35.1289 5.2126L37.0243 5.81327C37.9854 6.12027 38.6795 6.54742 39.0933 7.09469C39.5071 7.64196 39.7073 8.26933 39.7073 8.96343C39.7073 9.5374 39.5872 10.058 39.3603 10.5118C39.12 10.9657 38.7996 11.3661 38.3858 11.6865C37.972 12.0202 37.4782 12.2604 36.9042 12.434C36.3035 12.6208 35.6762 12.7143 34.9954 12.7143Z" fill="#252F3E"/>
<g id="Group">
<path id="Vector_2" fill-rule="evenodd" clip-rule="evenodd" d="M37.5182 19.2017C33.1267 22.4453 26.7463 24.1673 21.2602 24.1673C13.5716 24.1673 6.64392 21.3241 1.41144 16.5989C0.997649 16.2251 1.3714 15.7179 1.86528 16.0115C7.5249 19.2952 14.506 21.2841 21.7273 21.2841C26.5994 21.2841 31.952 20.2696 36.8775 18.1873C37.6117 17.8536 38.239 18.6678 37.5182 19.2017Z" fill="#FF9900"/>
<path id="Vector_3" fill-rule="evenodd" clip-rule="evenodd" d="M39.3469 17.1193C38.7863 16.3985 35.6361 16.7723 34.2079 16.9458C33.7807 16.9992 33.714 16.6254 34.1011 16.3451C36.6106 14.5832 40.7351 15.0904 41.2157 15.6777C41.6962 16.2784 41.0822 20.403 38.7329 22.3785C38.3725 22.6855 38.0255 22.5253 38.1856 22.1249C38.7196 20.8034 39.9076 17.8268 39.3469 17.1193Z" fill="#FF9900"/>
</g>
<g id="Rectangle 249" style="mix-blend-mode:saturation">
<rect x="1" y="-0.333008" width="41" height="26" fill="#D9D9D9"/>
</g>
</g>
<defs>
<clipPath id="clip0_263_5938">
<rect width="40.9556" height="24" fill="white" transform="translate(0.869141 0.166992)"/>
</clipPath>
</defs>
</svg>
