<svg width="35" height="25" viewBox="0 0 35 25" fill="none" xmlns="http://www.w3.org/2000/svg">
<g id="Group">
<path id="Vector" d="M33.9489 9.40903C33.8558 9.33146 33.0181 8.69539 31.2185 8.69539C30.753 8.69539 30.2721 8.74193 29.8067 8.8195C29.4654 6.44588 27.4951 5.29785 27.4176 5.23579L26.9366 4.95654L26.6263 5.40645C26.2385 6.01149 25.9437 6.6941 25.7731 7.39222C25.4473 8.74193 25.649 10.0141 26.3316 11.1C25.5093 11.5655 24.1751 11.6741 23.8959 11.6896H1.86616C1.29215 11.6896 0.826732 12.155 0.826732 12.729C0.795704 14.6527 1.1215 16.5764 1.78859 18.3916C2.54877 20.3774 3.68129 21.8512 5.1396 22.751C6.78407 23.7594 9.46797 24.3334 12.4932 24.3334C13.8584 24.3334 15.2236 24.2093 16.5733 23.9611C18.4505 23.6198 20.2501 22.9682 21.9101 22.0218C23.2753 21.2306 24.5009 20.2222 25.5404 19.0432C27.2934 17.0729 28.3329 14.8699 29.0931 12.9152H29.4033C31.3115 12.9152 32.4906 12.155 33.1422 11.5034C33.5766 11.1 33.9024 10.6036 34.1351 10.0451L34.2747 9.64174L33.9489 9.40903Z" fill="#0091E2"/>
<path id="Vector_2" d="M3.91413 11.0536H6.86177C7.00139 11.0536 7.1255 10.945 7.1255 10.7899V8.1525C7.1255 8.01287 7.01691 7.88877 6.86177 7.88877H3.91413C3.7745 7.88877 3.65039 7.99736 3.65039 8.1525V10.7899C3.6659 10.945 3.7745 11.0536 3.91413 11.0536ZM7.97877 11.0536H10.9264C11.066 11.0536 11.1901 10.945 11.1901 10.7899V8.1525C11.1901 8.01287 11.0815 7.88877 10.9264 7.88877H7.97877C7.83914 7.88877 7.71503 7.99736 7.71503 8.1525V10.7899C7.73055 10.945 7.83914 11.0536 7.97877 11.0536ZM12.121 11.0536H15.0686C15.2082 11.0536 15.3324 10.945 15.3324 10.7899V8.1525C15.3324 8.01287 15.2238 7.88877 15.0686 7.88877H12.121C11.9814 7.88877 11.8572 7.99736 11.8572 8.1525V10.7899C11.8572 10.945 11.9658 11.0536 12.121 11.0536ZM16.2011 11.0536H19.1488C19.2884 11.0536 19.4125 10.945 19.4125 10.7899V8.1525C19.4125 8.01287 19.3039 7.88877 19.1488 7.88877H16.2011C16.0615 7.88877 15.9374 7.99736 15.9374 8.1525V10.7899C15.9374 10.945 16.0615 11.0536 16.2011 11.0536ZM7.97877 7.28372H10.9264C11.066 7.28372 11.1901 7.15961 11.1901 7.01999V4.38262C11.1901 4.243 11.0815 4.11889 10.9264 4.11889H7.97877C7.83914 4.11889 7.71503 4.22749 7.71503 4.38262V7.01999C7.73055 7.15961 7.83914 7.28372 7.97877 7.28372ZM12.121 7.28372H15.0686C15.2082 7.28372 15.3324 7.15961 15.3324 7.01999V4.38262C15.3324 4.243 15.2238 4.11889 15.0686 4.11889H12.121C11.9814 4.11889 11.8572 4.22749 11.8572 4.38262V7.01999C11.8572 7.15961 11.9658 7.28372 12.121 7.28372ZM16.2011 7.28372H19.1488C19.2884 7.28372 19.4125 7.15961 19.4125 7.01999V4.38262C19.4125 4.243 19.2884 4.11889 19.1488 4.11889H16.2011C16.0615 4.11889 15.9374 4.22749 15.9374 4.38262V7.01999C15.9374 7.15961 16.0615 7.28372 16.2011 7.28372ZM16.2011 3.49833H19.1488C19.2884 3.49833 19.4125 3.38974 19.4125 3.2346V0.597234C19.4125 0.457609 19.2884 0.333496 19.1488 0.333496H16.2011C16.0615 0.333496 15.9374 0.442095 15.9374 0.597234V3.2346C15.9374 3.37422 16.0615 3.49833 16.2011 3.49833ZM20.3123 11.0536H23.26C23.3996 11.0536 23.5237 10.945 23.5237 10.7899V8.1525C23.5237 8.01287 23.4151 7.88877 23.26 7.88877H20.3123C20.1727 7.88877 20.0486 7.99736 20.0486 8.1525V10.7899C20.0641 10.945 20.1727 11.0536 20.3123 11.0536Z" fill="#0091E2"/>
<g id="Rectangle 249" style="mix-blend-mode:saturation">
<rect x="1" width="33" height="24" fill="#D9D9D9"/>
</g>
</g>
</svg>
