<svg width="25" height="25" viewBox="0 0 25 25" fill="none" xmlns="http://www.w3.org/2000/svg">
<g id="numpy logo" clip-path="url(#clip0_263_5901)">
<g id="Group 46">
<g id="Group">
<path id="Vector" d="M11.3879 5.03842L7.37763 3.01416L2.97656 5.21063L7.09524 7.27896L11.3879 5.03842Z" fill="#4DABCF"/>
<path id="Vector_2" d="M13.226 5.96631L17.4305 8.08856L13.0683 10.2792L8.94324 8.20743L13.226 5.96631Z" fill="#4DABCF"/>
<path id="Vector_3" d="M18.8412 3.04492L23.1605 5.21066L19.2975 7.15084L15.0844 5.02569L18.8412 3.04492Z" fill="#4DABCF"/>
<path id="Vector_4" d="M16.9822 2.11205L13.0937 0.162598L9.24695 2.0819L13.2537 4.10268L16.9822 2.11205Z" fill="#4DABCF"/>
<path id="Vector_5" d="M13.942 18.8565V24.1627L18.6527 21.8119L18.6475 16.5034L13.942 18.8565Z" fill="#4DABCF"/>
<path id="Vector_6" d="M18.6458 14.6508L18.6405 9.39795L13.942 11.7336V16.9882L18.6458 14.6508Z" fill="#4DABCF"/>
<path id="Vector_7" d="M24.3011 13.666V18.9931L20.2833 20.9982L20.2804 15.6955L24.3011 13.666Z" fill="#4DABCF"/>
<path id="Vector_8" d="M24.3011 11.8038V6.58398L20.2758 8.58505L20.2792 13.8483L24.3011 11.8038Z" fill="#4DABCF"/>
</g>
<path id="Vector_9" d="M12.2789 11.7336L9.10601 10.1384V17.0334C9.10601 17.0334 5.22565 8.77692 4.86614 8.03529C4.81975 7.93962 4.62898 7.83466 4.58028 7.80915C3.88446 7.44385 1.8457 6.41113 1.8457 6.41113V18.5926L4.66609 20.1002V13.7329C4.66609 13.7329 8.50528 21.1103 8.54413 21.1909C8.58298 21.2715 8.96858 22.0491 9.38028 22.3222C9.92881 22.6852 12.2795 24.0989 12.2795 24.0989L12.2789 11.7336Z" fill="#4D77CF"/>
</g>
<g id="Rectangle 249" style="mix-blend-mode:saturation">
<rect x="0.8396" y="0.166992" width="24" height="24" fill="#D9D9D9"/>
</g>
</g>
<defs>
<clipPath id="clip0_263_5901">
<rect width="24" height="24" fill="white" transform="translate(0.936035 0.166992)"/>
</clipPath>
</defs>
</svg>
