<svg width="28" height="28" viewBox="0 0 28 28" fill="none" xmlns="http://www.w3.org/2000/svg">
<g id="PostgreSQL logo">
<g id="Group">
<g id="Vector">
<path d="M19.6655 19.6383C19.8183 18.3662 19.7724 18.1805 20.7193 18.3858L20.9602 18.4074C21.6887 18.4402 22.6412 18.2902 23.2102 18.0305C24.4149 17.4718 25.1293 16.538 23.9415 16.7837C21.2321 17.3424 21.0352 16.4246 21.0352 16.4246C23.8974 12.1777 25.0946 6.78709 24.0605 5.46803C21.2443 1.86803 16.3683 3.57053 16.2868 3.61553L16.2605 3.62022C15.7262 3.50772 15.1355 3.44209 14.4512 3.43272C13.2249 3.41397 12.2949 3.75428 11.588 4.28959C11.588 4.28959 2.89084 0.706466 3.29491 8.79615C3.38116 10.5174 5.76053 21.8274 8.60116 18.4055C9.64084 17.1549 10.644 16.0983 10.644 16.0983C11.1408 16.4293 11.738 16.598 12.3633 16.5371L12.4121 16.4958C12.3977 16.6579 12.4043 16.8211 12.4318 16.9815C11.7005 17.799 11.9162 17.9424 10.4537 18.2433C8.97428 18.548 9.84428 19.0908 10.4105 19.2333C11.0987 19.4058 12.6905 19.6496 13.7668 18.144L13.7237 18.3155C14.0105 18.5452 13.9908 19.9655 14.033 20.9799C14.0752 21.9943 14.1418 22.9421 14.349 23.4999C14.5562 24.0577 14.799 25.4968 16.7208 25.0937C18.3268 24.7496 19.5549 24.2537 19.6674 19.6468" fill="#1C1C1C"/>
<path d="M19.6655 19.6383C19.8183 18.3662 19.7724 18.1805 20.7193 18.3858L20.9602 18.4074C21.6887 18.4402 22.6412 18.2902 23.2102 18.0305C24.4149 17.4718 25.1293 16.538 23.9415 16.7837C21.2321 17.3424 21.0352 16.4246 21.0352 16.4246C23.8974 12.1777 25.0946 6.78709 24.0605 5.46803C21.2443 1.86803 16.3683 3.57053 16.2868 3.61553L16.2605 3.62022C15.7262 3.50772 15.1355 3.44209 14.4512 3.43272C13.2249 3.41397 12.2949 3.75428 11.588 4.28959C11.588 4.28959 2.89084 0.706466 3.29491 8.79615C3.38116 10.5174 5.76053 21.8274 8.60116 18.4055C9.64084 17.1549 10.644 16.0983 10.644 16.0983C11.1408 16.4293 11.738 16.598 12.3633 16.5371L12.4121 16.4958C12.3977 16.6579 12.4043 16.8211 12.4318 16.9815C11.7005 17.799 11.9162 17.9424 10.4537 18.2433C8.97428 18.548 9.84428 19.0908 10.4105 19.2333C11.0987 19.4058 12.6905 19.6496 13.7668 18.144L13.7237 18.3155C14.0105 18.5452 13.9908 19.9655 14.033 20.9799C14.0752 21.9943 14.1418 22.9421 14.349 23.4999C14.5562 24.0577 14.799 25.4968 16.7208 25.0937C18.3268 24.7496 19.5549 24.2537 19.6674 19.6468" stroke="#1C1C1C" stroke-width="5.3725"/>
</g>
<path id="Vector_2" d="M23.9331 16.7921C21.2237 17.3508 21.0268 16.433 21.0268 16.433C23.889 12.1861 25.0862 6.79552 24.0531 5.47646C21.2368 1.87646 16.3609 3.5799 16.2793 3.62396L16.2531 3.62865C15.6575 3.50915 15.052 3.44606 14.4446 3.44021C13.2184 3.42146 12.2884 3.76177 11.5815 4.29708C11.5815 4.29708 2.88337 0.713959 3.28837 8.80365C3.37462 10.5249 5.754 21.8349 8.59462 18.413C9.64087 17.1549 10.644 16.0983 10.644 16.0983C11.1409 16.4293 11.7381 16.598 12.3634 16.5371L12.4121 16.4958C12.3978 16.6579 12.4044 16.8211 12.4318 16.9815C11.7006 17.799 11.9162 17.9424 10.4537 18.2433C8.97431 18.548 9.84431 19.0908 10.4106 19.2333C11.0987 19.4058 12.6906 19.6496 13.7668 18.144L13.7237 18.3155C14.0106 18.5452 14.2112 19.809 14.1774 20.9546C14.1437 22.1002 14.1212 22.8858 14.3462 23.5008C14.5712 24.1158 14.7962 25.4977 16.7181 25.0946C18.324 24.7505 19.1556 23.8571 19.2727 22.3702C19.3552 21.3127 19.5409 21.4683 19.554 20.5233L19.704 20.0752C19.8756 18.6408 19.7321 18.1786 20.7212 18.3943L20.9621 18.4158C21.6906 18.4486 22.644 18.2986 23.2028 18.039C24.4074 17.4802 25.1209 16.5465 23.9331 16.7921Z" fill="#336791"/>
<g id="Group_2">
<g id="Group_3">
<path id="Vector_3" d="M13.8822 17.6049C13.8072 20.273 13.901 22.9599 14.1616 23.6049C14.4222 24.2499 14.9819 25.5268 16.9047 25.1161C18.5107 24.7721 19.0957 24.1055 19.3488 22.6346L19.9422 17.9311M11.5778 4.22958C11.5778 4.22958 2.87409 0.67083 3.27909 8.76052C3.36534 10.4818 5.74471 21.7918 8.58534 18.3699C9.62221 17.1202 10.5597 16.1424 10.5597 16.1424M16.2785 3.57989C15.9785 3.67364 21.1197 1.7002 24.0428 5.43427C25.0741 6.75333 23.8788 12.144 21.0166 16.3908" stroke="white" stroke-width="1.79" stroke-linecap="round" stroke-linejoin="round"/>
<path id="Vector_4" d="M21.0175 16.389C21.0175 16.389 21.205 17.3077 23.9238 16.7471C25.1116 16.5015 24.3963 17.4352 23.1925 17.994C22.2044 18.4534 19.9882 18.5706 19.9516 17.9377C19.8578 16.3018 21.1178 16.7987 21.0269 16.389C20.9444 16.0196 20.38 15.6577 20.0088 14.754C19.6835 13.9665 15.5463 7.91962 21.1563 8.81681C21.3625 8.77462 19.6938 3.47306 14.4438 3.39618C9.19378 3.31931 9.35972 9.85087 9.35972 9.85087" stroke="white" stroke-width="1.79" stroke-linecap="round" stroke-linejoin="bevel"/>
</g>
<g id="Group_4">
<path id="Vector_5" d="M12.413 16.9499C11.6818 17.7674 11.8974 17.9108 10.4349 18.2117C8.95551 18.5164 9.82551 19.0592 10.3918 19.2017C11.0799 19.3742 12.6718 19.618 13.748 18.1114C14.0761 17.652 13.7461 16.9208 13.2961 16.7352C13.0786 16.6452 12.788 16.5327 12.4149 16.9508L12.413 16.9499Z" stroke="white" stroke-width="1.79" stroke-linejoin="round"/>
<path id="Vector_6" d="M12.3653 16.9357C12.2903 16.4547 12.5228 15.8838 12.7713 15.2144C13.1444 14.2113 14.005 13.2082 13.3169 10.0235C12.8041 7.65162 9.36063 9.52943 9.36063 9.85099C9.36063 10.1726 9.51625 11.4822 9.30438 13.0057C9.02594 14.9951 10.57 16.6769 12.3475 16.5054" stroke="white" stroke-width="1.79" stroke-linecap="round" stroke-linejoin="round"/>
</g>
</g>
<g id="Group_5">
<path id="Vector_7" d="M11.546 9.80293C11.5301 9.91262 11.7476 10.2061 12.0297 10.2454C12.3119 10.2848 12.5529 10.0561 12.5688 9.94543C12.5847 9.8348 12.3672 9.7148 12.0851 9.67543C11.8029 9.63605 11.5601 9.69418 11.546 9.80293Z" fill="white" stroke="white" stroke-width="0.5975"/>
<path id="Vector_8" d="M20.1372 9.57881C20.1522 9.6885 19.9357 9.98193 19.6535 10.0213C19.3713 10.0607 19.1285 9.83193 19.1144 9.72131C19.1004 9.61068 19.316 9.49068 19.5982 9.45131C19.8804 9.41193 20.1232 9.47006 20.1372 9.57881Z" fill="white" stroke="white" stroke-width="0.2975"/>
</g>
<path id="Vector_9" d="M21.146 8.81885C21.1929 9.68135 20.9604 10.2673 20.9304 11.1851C20.8873 12.5182 21.566 14.0445 20.5432 15.5726" stroke="white" stroke-width="1.79" stroke-linecap="round" stroke-linejoin="round"/>
</g>
<g id="Rectangle 249" style="mix-blend-mode:saturation">
<rect x="1.83984" y="2.16699" width="24" height="24" fill="#D9D9D9"/>
</g>
</g>
</svg>
