<svg xmlns="http://www.w3.org/2000/svg" width="25" height="25" viewBox="0 0 25 25" fill="none">

  <g clip-path="url(#clip0_263_5888)">
    <path d="M12.7847 0.173828C6.68282 0.173828 7.06381 2.81995 7.06381 2.81995L7.07059 5.5614H12.8935V6.38446H4.75784C4.75784 6.38446 0.853271 5.94164 0.853271 12.0983C0.853271 18.2552 4.26127 18.0369 4.26127 18.0369H6.29515V15.1799C6.29515 15.1799 6.18551 11.7719 9.64875 11.7719H15.424C15.424 11.7719 18.6687 11.8243 18.6687 8.63595V3.36423C18.6687 3.36423 19.1615 0.173828 12.7847 0.173828ZM9.57393 2.0174C9.71153 2.01728 9.8478 2.04429 9.97495 2.09689C10.1021 2.14949 10.2176 2.22665 10.3149 2.32394C10.4122 2.42124 10.4894 2.53677 10.542 2.66392C10.5946 2.79106 10.6216 2.92734 10.6215 3.06493C10.6216 3.20253 10.5946 3.3388 10.542 3.46595C10.4894 3.5931 10.4122 3.70863 10.3149 3.80593C10.2176 3.90322 10.1021 3.98038 9.97495 4.03298C9.8478 4.08558 9.71153 4.11259 9.57393 4.11246C9.43633 4.11259 9.30006 4.08558 9.17291 4.03298C9.04576 3.98038 8.93024 3.90322 8.83294 3.80593C8.73564 3.70863 8.65849 3.5931 8.60589 3.46595C8.55329 3.3388 8.52628 3.20253 8.5264 3.06493C8.52628 2.92734 8.55329 2.79106 8.60589 2.66392C8.65849 2.53677 8.73564 2.42124 8.83294 2.32394C8.93024 2.22665 9.04576 2.14949 9.17291 2.09689C9.30006 2.04429 9.43633 2.01728 9.57393 2.0174Z" fill="url(#paint0_linear_263_5888)"/>
    <path d="M12.9579 24.0847C19.0597 24.0847 18.6788 21.4386 18.6788 21.4386L18.672 18.6972H12.849V17.8742H20.9846C20.9846 17.8742 24.8892 18.317 24.8892 12.1601C24.8892 6.00331 21.4812 6.22166 21.4812 6.22166H19.4473V9.0786C19.4473 9.0786 19.557 12.4866 16.0937 12.4866H10.3185C10.3185 12.4866 7.07377 12.4342 7.07377 15.6226V20.8944C7.07377 20.8944 6.58106 24.0847 12.9578 24.0847H12.9579ZM16.1686 22.2413C16.031 22.2415 15.8948 22.2144 15.7676 22.1618C15.6405 22.1092 15.5249 22.0321 15.4276 21.9348C15.3304 21.8375 15.2532 21.722 15.2006 21.5948C15.148 21.4677 15.121 21.3314 15.1211 21.1938C15.121 21.0562 15.148 20.9199 15.2006 20.7928C15.2532 20.6656 15.3303 20.5501 15.4276 20.4527C15.5249 20.3554 15.6404 20.2783 15.7676 20.2257C15.8948 20.1731 16.031 20.1461 16.1686 20.1462C16.3062 20.1461 16.4425 20.1731 16.5697 20.2257C16.6968 20.2783 16.8123 20.3554 16.9096 20.4527C17.0069 20.55 17.0841 20.6655 17.1367 20.7927C17.1893 20.9198 17.2163 21.0561 17.2162 21.1937C17.2163 21.3313 17.1893 21.4676 17.1367 21.5947C17.0841 21.7219 17.0069 21.8374 16.9096 21.9347C16.8123 22.032 16.6968 22.1092 16.5697 22.1618C16.4425 22.2143 16.3062 22.2415 16.1686 22.2413Z" fill="url(#paint1_linear_263_5888)"/>
    <g style="mix-blend-mode:saturation">
      <rect x="0.8396" y="0.166992" width="24" height="24" fill="#D9D9D9"/>
    </g>
  </g>
  <defs>
    <linearGradient id="paint0_linear_263_5888" x1="231.838" y1="215.239" x2="1422.99" y2="1394.5" gradientUnits="userSpaceOnUse">
      <stop stop-color="#387EB8"/>
      <stop offset="1" stop-color="#366994"/>
    </linearGradient>
    <linearGradient id="paint1_linear_263_5888" x1="348.007" y1="373.844" x2="1627.16" y2="1583.07" gradientUnits="userSpaceOnUse">
      <stop stop-color="#FFE052"/>
      <stop offset="1" stop-color="#FFC331"/>
    </linearGradient>
    <clipPath id="clip0_263_5888">
      <rect width="24.0964" height="24" fill="white" transform="translate(0.8396 0.166992)"/>
    </clipPath>
  </defs>
</svg>