<svg width="25" height="25" viewBox="0 0 25 25" fill="none" xmlns="http://www.w3.org/2000/svg">
<g id="PyTorch logo" clip-path="url(#clip0_263_5946)">
<g id="Group">
<path id="Vector" d="M19.3324 7.21972L17.59 8.96216C20.4941 11.8662 20.4941 16.5957 17.59 19.4998C14.6859 22.4038 9.95646 22.4038 7.0524 19.4998C4.14834 16.5957 4.14834 11.8662 7.0524 8.96216L11.6989 4.31565L12.2797 3.65187V0.166992L5.22699 7.21972C4.30028 8.13708 3.56463 9.22906 3.06257 10.4325C2.56051 11.6359 2.302 12.927 2.302 14.231C2.302 15.5349 2.56051 16.826 3.06257 18.0294C3.56463 19.2329 4.30028 20.3248 5.22699 21.2422C6.14435 22.1689 7.23633 22.9046 8.43977 23.4066C9.64322 23.9087 10.9343 24.1672 12.2382 24.1672C13.5422 24.1672 14.8332 23.9087 16.0367 23.4066C17.2401 22.9046 18.3321 22.1689 19.2495 21.2422C23.2322 17.3425 23.2322 11.0365 19.3324 7.21972Z" fill="#EE4C2C"/>
<path id="Vector_2" d="M15.8476 6.72204C16.5808 6.72204 17.1752 6.12766 17.1752 5.39447C17.1752 4.66127 16.5808 4.06689 15.8476 4.06689C15.1144 4.06689 14.52 4.66127 14.52 5.39447C14.52 6.12766 15.1144 6.72204 15.8476 6.72204Z" fill="#EE4C2C"/>
</g>
<g id="Rectangle 249" style="mix-blend-mode:saturation">
<rect x="-0.1604" y="0.166992" width="24" height="24" fill="#D9D9D9"/>
</g>
</g>
<defs>
<clipPath id="clip0_263_5946">
<rect width="24" height="24" fill="white" transform="translate(0.274658 0.166992)"/>
</clipPath>
</defs>
</svg>
