<svg width="29" height="25" viewBox="0 0 29 25" fill="none" xmlns="http://www.w3.org/2000/svg">
<g id="Redis logo" clip-path="url(#clip0_263_5913)">
<path id="Vector" d="M27.7691 18.5972C26.2787 19.374 18.5581 22.5485 16.9145 23.4054C15.2708 24.2624 14.3577 24.2541 13.0592 23.6334C11.7608 23.0127 3.54473 19.6939 2.06469 18.9864C1.32505 18.633 0.936035 18.3345 0.936035 18.0526V15.2298C0.936035 15.2298 11.6324 12.9012 13.3592 12.2817C15.0859 11.6622 15.685 11.6398 17.1545 12.1781C18.6241 12.7165 27.411 14.3019 28.8633 14.8338L28.8627 17.6167C28.8629 17.8957 28.5277 18.2019 27.7691 18.5972Z" fill="#912626"/>
<path id="Vector_2" d="M27.7686 15.7908C26.2783 16.5673 18.5579 19.7418 16.9142 20.5986C15.2707 21.4558 14.3576 21.4474 13.0592 20.8266C11.7607 20.2063 3.54492 16.887 2.06499 16.18C0.585065 15.4726 0.554083 14.9857 2.00783 14.4165C3.46157 13.847 11.6323 10.6414 13.3593 10.0218C15.086 9.40252 15.685 9.37994 17.1544 9.91841C18.624 10.4567 26.2983 13.5113 27.7504 14.0431C29.2031 14.5756 29.2588 15.0141 27.7686 15.7908Z" fill="#C6302B"/>
<path id="Vector_3" d="M27.7691 14.0297C26.2787 14.8067 18.5581 17.981 16.9145 18.8383C15.2708 19.6949 14.3577 19.6867 13.0592 19.0659C11.7607 18.4455 3.54473 15.1264 2.06469 14.419C1.32505 14.0655 0.936035 13.7675 0.936035 13.4855V10.6623C0.936035 10.6623 11.6324 8.33389 13.3592 7.71437C15.0859 7.09484 15.685 7.07237 17.1545 7.61073C18.6243 8.14909 27.4111 9.73408 28.8633 10.2661L28.8627 13.0493C28.8629 13.3283 28.5277 13.6344 27.7691 14.0297Z" fill="#912626"/>
<path id="Vector_4" d="M27.7686 11.2233C26.2783 12.0001 18.5579 15.1744 16.9142 16.0315C15.2707 16.8883 14.3576 16.8799 13.0592 16.2592C11.7607 15.6389 3.54492 12.3197 2.06499 11.6126C0.585065 10.9053 0.554083 10.4184 2.00783 9.8489C3.46157 9.27978 11.6324 6.07392 13.3593 5.4545C15.086 4.83509 15.685 4.81261 17.1544 5.35098C18.624 5.88923 26.2983 8.94367 27.7504 9.4757C29.2031 10.0081 29.2588 10.4466 27.7686 11.2233Z" fill="#C6302B"/>
<path id="Vector_5" d="M27.7691 9.29271C26.2787 10.0694 18.5581 13.244 16.9145 14.1012C15.2708 14.958 14.3577 14.9496 13.0592 14.3289C11.7607 13.7085 3.54473 10.3893 2.06469 9.68216C1.32505 9.32838 0.936035 9.03024 0.936035 8.74856V5.92529C0.936035 5.92529 11.6324 3.59696 13.3592 2.97755C15.0859 2.35791 15.685 2.33565 17.1545 2.87391C18.6243 3.41227 27.4111 4.99725 28.8633 5.52929L28.8627 8.31242C28.8629 8.59115 28.5277 8.89725 27.7691 9.29271Z" fill="#912626"/>
<path id="Vector_6" d="M27.7686 6.48639C26.2783 7.26312 18.558 10.4377 16.9143 11.2945C15.2707 12.1513 14.3576 12.1429 13.0592 11.5225C11.7608 10.9017 3.54499 7.58276 2.06517 6.87552C0.585133 6.16839 0.55426 5.6813 2.0079 5.11196C3.46164 4.54272 11.6324 1.3373 13.3594 0.717666C15.086 0.0981392 15.6851 0.0758846 17.1545 0.614248C18.6241 1.15261 26.2984 4.20705 27.7505 4.73908C29.2032 5.27101 29.2589 5.70967 27.7686 6.48639Z" fill="#C6302B"/>
<path id="Vector_7" d="M18.3123 3.74031L15.9113 3.98958L15.3738 5.28296L14.5056 3.83969L11.7331 3.59053L13.8019 2.84446L13.1811 1.69922L15.1181 2.45675L16.944 1.85893L16.4505 3.04311L18.3123 3.74031ZM15.2304 10.015L10.7493 8.15642L17.1704 7.17078L15.2304 10.015ZM9.01769 4.45922C10.9131 4.45922 12.4497 5.05486 12.4497 5.78947C12.4497 6.52431 10.9131 7.11984 9.01769 7.11984C7.12224 7.11984 5.58569 6.5242 5.58569 5.78947C5.58569 5.05486 7.12224 4.45922 9.01769 4.45922Z" fill="white"/>
<path id="Vector_8" d="M21.1501 4.09386L24.9504 5.5956L21.1534 7.09593L21.1501 4.09386Z" fill="#621B1C"/>
<path id="Vector_9" d="M16.9456 5.75733L21.1499 4.09424L21.1532 7.09631L20.7409 7.25755L16.9456 5.75733Z" fill="#9A2928"/>
<g id="Rectangle 249" style="mix-blend-mode:saturation">
<rect x="1" y="-0.333008" width="28" height="24" fill="#D9D9D9"/>
</g>
</g>
<defs>
<clipPath id="clip0_263_5913">
<rect width="27.933" height="24" fill="white" transform="translate(0.936035 0.166992)"/>
</clipPath>
</defs>
</svg>
