<svg width="118" height="64" viewBox="0 0 118 64" fill="none" xmlns="http://www.w3.org/2000/svg">
<g id="streamlit logo" clip-path="url(#clip0_139_13284)">
<g id="Group">
<path id="Vector" d="M57.6064 0.997375C58.4841 -0.332458 60.467 -0.332458 61.3774 0.997375L80.0076 28.769L99.8116 58.2633C99.5777 58.6794 99.3079 59.0743 99.0052 59.4434C98.7985 59.6895 98.6027 59.9224 98.3585 60.1615C98.3049 60.2127 98.2532 60.2527 98.1892 60.3015L98.1205 60.3538C97.8963 60.5212 97.6655 60.6795 97.4285 60.8282C97.2365 60.9483 97.0778 61.0545 96.8484 61.1649C96.6194 61.2752 96.2531 61.4079 96.0327 61.4836C95.8119 61.5596 95.7382 61.5854 95.5755 61.6213C95.4944 61.6376 95.4128 61.6536 95.3317 61.6634C95.2763 61.6731 95.2213 61.6829 95.1659 61.6895C95.1562 61.6926 95.1433 61.6926 95.1335 61.6962L94.8862 61.7254C94.6264 61.7512 94.3565 61.7644 94.0803 61.7644C71.0991 64.27 47.9136 64.27 24.9324 61.7644C24.9063 61.7644 24.8806 61.7644 24.8544 61.7609L24.7764 61.7605L24.7405 61.7578H24.705C24.6789 61.7547 24.6527 61.7547 24.627 61.7512H24.6009C24.565 61.748 24.5322 61.748 24.4971 61.7449C24.2825 61.7285 24.0325 61.6743 23.8534 61.6345C23.674 61.5986 23.5671 61.5694 23.4177 61.5366C21.649 61.1173 20.0239 60.0511 19.2792 58.325C19.2597 58.2793 19.2433 58.2341 19.2238 58.1884L19.2207 58.1787L1.07461 11.897C0.586993 10.5968 1.91995 9.29626 3.22013 9.91417C3.2529 9.91417 3.31766 9.91417 3.35043 9.94654L38.963 28.7686L57.6064 0.997375ZM115.666 9.94694C116.97 9.23189 118.368 10.4669 117.912 11.8323V11.8974L99.812 58.2637L80.0076 28.769L115.634 9.94694H115.666Z" fill="#FF4B4B"/>
<path id="Vector_2" d="M115.666 9.94691H115.634L80.0078 28.769L99.8118 58.2637L117.912 11.8974V11.8322C118.367 10.4669 116.97 9.23186 115.666 9.94691Z" fill="#7D353B"/>
<path id="Vector_3" d="M61.3774 0.997375C60.4669 -0.332458 58.484 -0.332458 57.6063 0.997375L38.9629 28.769L59.4788 39.6137L98.3584 60.1615C98.6026 59.9224 98.7984 59.6895 99.0051 59.4434C99.3078 59.0743 99.5776 58.6794 99.8115 58.2633L80.0075 28.769L61.3774 0.997375Z" fill="#BD4043"/>
</g>
</g>
<defs>
<clipPath id="clip0_139_13284">
<rect width="117.029" height="64" fill="white" transform="translate(0.97168)"/>
</clipPath>
</defs>
</svg>
