<svg width="45" height="25" viewBox="0 0 45 25" fill="none" xmlns="http://www.w3.org/2000/svg">
<g id="streamlit logo" clip-path="url(#clip0_263_5950)">
<g id="Group">
<path id="Vector" d="M21.5127 0.541008C21.8418 0.0423203 22.5854 0.0423203 22.9268 0.541008L29.9131 10.9554L37.3396 22.0157C37.2519 22.1718 37.1507 22.3198 37.0372 22.4583C36.9597 22.5506 36.8863 22.6379 36.7947 22.7276C36.7746 22.7468 36.7552 22.7618 36.7312 22.78L36.7055 22.7997C36.6214 22.8625 36.5348 22.9218 36.446 22.9776C36.374 23.0226 36.3144 23.0624 36.2284 23.1038C36.1426 23.1452 36.0052 23.1949 35.9225 23.2233C35.8397 23.2519 35.8121 23.2615 35.7511 23.275C35.7207 23.2811 35.6901 23.2871 35.6597 23.2908C35.6389 23.2944 35.6183 23.2981 35.5975 23.3006C35.5938 23.3017 35.589 23.3017 35.5854 23.3031L35.4926 23.314C35.3952 23.3237 35.294 23.3287 35.1904 23.3287C26.5724 24.2682 17.8779 24.2682 9.25994 23.3287C9.25014 23.3287 9.24049 23.3287 9.23068 23.3273L9.20143 23.3272L9.18797 23.3262H9.17466C9.16486 23.325 9.15505 23.325 9.1454 23.3237H9.1356C9.12214 23.3225 9.10985 23.3225 9.09669 23.3213C9.01623 23.3152 8.92246 23.2949 8.85532 23.2799C8.78802 23.2665 8.74794 23.2555 8.69191 23.2432C8.02865 23.086 7.41923 22.6862 7.13997 22.0389C7.13265 22.0217 7.12651 22.0048 7.1192 21.9877L7.11803 21.984L0.313258 4.62837C0.130401 4.1408 0.630259 3.65309 1.11783 3.8848C1.13012 3.8848 1.1544 3.8848 1.16669 3.89695L14.5214 10.9552L21.5127 0.541008ZM43.2851 3.89709C43.774 3.62895 44.2981 4.09209 44.1274 4.60409V4.62852L37.3398 22.0159L29.9131 10.9554L43.273 3.89709H43.2851Z" fill="#FF4B4B"/>
<path id="Vector_2" d="M43.2852 3.89696H43.273L29.9133 10.9552L37.3398 22.0158L44.1275 4.62839V4.60396C44.2982 4.09196 43.774 3.62882 43.2852 3.89696Z" fill="#7D353B"/>
<path id="Vector_3" d="M22.9269 0.541008C22.5855 0.0423203 21.8419 0.0423203 21.5128 0.541008L14.5215 10.9554L22.2149 15.0221L36.7948 22.7276C36.8864 22.6379 36.9598 22.5506 37.0373 22.4583C37.1508 22.3198 37.252 22.1718 37.3397 22.0157L29.9132 10.9554L22.9269 0.541008Z" fill="#BD4043"/>
</g>
<g id="Rectangle 249" style="mix-blend-mode:saturation">
<rect y="-0.333008" width="44" height="26" fill="#D9D9D9"/>
</g>
</g>
<defs>
<clipPath id="clip0_263_5950">
<rect width="43.8857" height="24" fill="white" transform="translate(0.274658 0.166992)"/>
</clipPath>
</defs>
</svg>
