<?xml version="1.0" encoding="UTF-8"?><svg id="Warstwa_1" xmlns="http://www.w3.org/2000/svg" viewBox="0 0 920.9172634964 575.8498702188"><path d="M459.483494305,280.9264334843v-110.990234375h18.234375v110.990234375h-18.234375ZM472.0098614925,186.5846366093v-16.6484375h61.3623046875v16.6484375h-61.3623046875ZM472.0098614925,232.2496756718v-16.0146484375h56.763671875v16.0146484375h-56.763671875ZM472.0098614925,280.9264334843v-16.6484375h62.1552734375v16.6484375h-62.1552734375Z" style="fill:#fff; stroke-width:0px;"/><path d="M546.62607243,280.9264334843v-110.990234375h18.234375v110.990234375h-18.234375ZM559.1524396175,239.0670584843v-15.85546875h27.7470703125c3.806640625,0,7.16015625-.765625,10.068359375-2.298828125,2.90625-1.53125,5.205078125-3.69921875,6.8984375-6.5009765625,1.689453125-2.7998046875,2.5361328125-6.1044921875,2.5361328125-9.91015625,0-3.8046875-.8466796875-7.107421875-2.5361328125-9.9091796875-1.693359375-2.7998046875-3.9921875-4.9677734375-6.8984375-6.5009765625-2.908203125-1.53125-6.26171875-2.298828125-10.068359375-2.298828125h-27.7470703125v-15.8564453125h28.69921875c6.9755859375,0,13.2392578125,1.427734375,18.7880859375,4.28125,5.55078125,2.8544921875,9.935546875,6.8720703125,13.1611328125,12.05078125,3.2236328125,5.1796875,4.8359375,11.2568359375,4.8359375,18.2333984375s-1.6123046875,13.056640625-4.8359375,18.234375c-3.2255859375,5.1806640625-7.6103515625,9.1962890625-13.1611328125,12.05078125-5.548828125,2.853515625-11.8125,4.2802734375-18.7880859375,4.2802734375h-28.69921875Z" style="fill:#fff; stroke-width:0px;"/><path d="M635.3848614925,280.9264334843v-110.990234375h18.2333984375v110.990234375h-18.2333984375ZM647.91122868,233.8346366093v-15.0625h28.064453125c5.6015625,0,9.9619140625-1.4521484375,13.080078125-4.3603515625,3.1171875-2.90625,4.677734375-6.94921875,4.677734375-12.1298828125,0-4.650390625-1.533203125-8.5615234375-4.59765625-11.7333984375-3.0673828125-3.1708984375-7.400390625-4.755859375-13.001953125-4.755859375h-28.22265625v-15.8564453125h29.015625c6.9765625,0,13.10546875,1.40234375,18.392578125,4.2021484375,5.28515625,2.8017578125,9.3798828125,6.607421875,12.2880859375,11.416015625,2.90625,4.8115234375,4.3603515625,10.28125,4.3603515625,16.4111328125,0,6.4482421875-1.4541015625,12.0498046875-4.3603515625,16.806640625-2.908203125,4.7568359375-7.0029296875,8.4580078125-12.2880859375,11.0986328125-5.287109375,2.6435546875-11.416015625,3.9638671875-18.392578125,3.9638671875h-29.015625ZM696.27060368,280.9264334843l-38.845703125-48.201171875,16.96484375-6.18359375,44.8720703125,54.384765625h-22.9912109375Z" style="fill:#fff; stroke-width:0px;"/><path d="M459.561619305,406.6647147343v-110.990234375h18.2333984375v110.990234375h-18.2333984375ZM472.08700993,406.6647147343v-16.6484375h58.0322265625v16.6484375h-58.0322265625Z" style="fill:#fff; stroke-width:0px;"/><path d="M573.18075993,408.2506522343c-6.8720703125,0-13.080078125-1.744140625-18.6298828125-5.232421875s-9.9365234375-8.2177734375-13.16015625-14.19140625c-3.2255859375-5.970703125-4.8369140625-12.6572265625-4.8369140625-20.0576171875,0-7.50390625,1.611328125-14.2421875,4.8369140625-20.2158203125,3.2236328125-5.970703125,7.6103515625-10.7275390625,13.16015625-14.26953125,5.5498046875-3.541015625,11.7578125-5.3125,18.6298828125-5.3125,5.8125,0,10.9658203125,1.244140625,15.4599609375,3.7265625,4.4912109375,2.484375,8.0595703125,5.8935546875,10.7021484375,10.2265625,2.640625,4.3359375,3.96484375,9.2509765625,3.96484375,14.74609375v21.880859375c0,5.4970703125-1.296875,10.4130859375-3.884765625,14.74609375-2.591796875,4.3349609375-6.16015625,7.744140625-10.703125,10.2265625-4.546875,2.482421875-9.7265625,3.7265625-15.5390625,3.7265625ZM576.0352521175,391.7604178593c6.4462890625,0,11.6533203125-2.1650390625,15.6181640625-6.5009765625,3.962890625-4.3330078125,5.9453125-9.8828125,5.9453125-16.6484375,0-4.5439453125-.8984375-8.5625-2.6953125-12.05078125-1.798828125-3.48828125-4.30859375-6.2080078125-7.53125-8.1650390625-3.2255859375-1.955078125-7.00390625-2.93359375-11.3369140625-2.93359375-4.2294921875,0-7.955078125.978515625-11.1787109375,2.93359375-3.224609375,1.95703125-5.76171875,4.6767578125-7.6103515625,8.1650390625-1.8505859375,3.48828125-2.7744140625,7.5068359375-2.7744140625,12.05078125,0,4.5458984375.923828125,8.5625,2.7744140625,12.05078125,1.8486328125,3.48828125,4.3857421875,6.2109375,7.6103515625,8.1650390625,3.2236328125,1.95703125,6.94921875,2.93359375,11.1787109375,2.93359375ZM596.48935368,406.6647147343v-20.4541015625l3.01171875-18.55078125-3.01171875-18.392578125v-18.7099609375h17.44140625v76.107421875h-17.44140625Z" style="fill:#fff; stroke-width:0px;"/><path d="M635.698338055,406.6647147343v-114.1611328125h17.44140625v56.763671875l-3.013671875,18.392578125,3.013671875,18.55078125v20.4541015625h-17.44140625ZM676.4473614925,408.2506522343c-5.8154296875,0-10.9951171875-1.244140625-15.5390625-3.7265625-4.5458984375-2.482421875-8.11328125-5.8916015625-10.7021484375-10.2265625-2.591796875-4.3330078125-3.884765625-9.2490234375-3.884765625-14.74609375v-21.880859375c0-5.4951171875,1.3203125-10.41015625,3.9638671875-14.74609375,2.6416015625-4.3330078125,6.2353515625-7.7421875,10.7822265625-10.2265625,4.54296875-2.482421875,9.671875-3.7265625,15.3798828125-3.7265625,6.8701171875,0,13.0810546875,1.771484375,18.6298828125,5.3125,5.5498046875,3.5419921875,9.935546875,8.298828125,13.16015625,14.26953125,3.2236328125,5.9736328125,4.8359375,12.7119140625,4.8359375,20.2158203125,0,7.400390625-1.6123046875,14.0869140625-4.8359375,20.0576171875-3.224609375,5.9736328125-7.6103515625,10.703125-13.16015625,14.19140625-5.548828125,3.48828125-11.759765625,5.232421875-18.6298828125,5.232421875ZM673.592869305,391.7604178593c4.2265625,0,7.953125-.9765625,11.1787109375-2.93359375,3.2236328125-1.9541015625,5.759765625-4.6767578125,7.6103515625-8.1650390625,1.84765625-3.48828125,2.775390625-7.5048828125,2.775390625-12.05078125,0-4.5439453125-.927734375-8.5625-2.775390625-12.05078125-1.8505859375-3.48828125-4.38671875-6.2080078125-7.6103515625-8.1650390625-3.2255859375-1.955078125-6.9521484375-2.93359375-11.1787109375-2.93359375-4.228515625,0-7.982421875.978515625-11.2578125,2.93359375-3.27734375,1.95703125-5.814453125,4.6767578125-7.6103515625,8.1650390625-1.7978515625,3.48828125-2.6953125,7.5068359375-2.6953125,12.05078125,0,4.5458984375.8974609375,8.5625,2.6953125,12.05078125,1.7958984375,3.48828125,4.3330078125,6.2109375,7.6103515625,8.1650390625,3.275390625,1.95703125,7.029296875,2.93359375,11.2578125,2.93359375Z" style="fill:#fff; stroke-width:0px;"/><path d="M753.393650555,408.2506522343c-4.2294921875,0-8.2998046875-.5556640625-12.208984375-1.6650390625-3.912109375-1.1103515625-7.5068359375-2.6953125-10.7822265625-4.7568359375-3.2783203125-2.0615234375-6.1318359375-4.5712890625-8.5615234375-7.53125l11.0986328125-11.099609375c2.640625,3.0673828125,5.6806640625,5.3662109375,9.1162109375,6.8974609375,3.4345703125,1.533203125,7.318359375,2.298828125,11.654296875,2.298828125,3.91015625,0,6.8701171875-.5791015625,8.87890625-1.744140625,2.0078125-1.1611328125,3.013671875-2.853515625,3.013671875-5.0732421875,0-2.32421875-.951171875-4.123046875-2.8544921875-5.3916015625-1.9033203125-1.267578125-4.3603515625-2.3505859375-7.373046875-3.25-3.0126953125-.896484375-6.18359375-1.8232421875-9.5126953125-2.7744140625-3.330078125-.951171875-6.501953125-2.2451171875-9.513671875-3.884765625-3.013671875-1.6376953125-5.470703125-3.884765625-7.373046875-6.7392578125-1.90234375-2.853515625-2.8544921875-6.552734375-2.8544921875-11.0986328125,0-4.8603515625,1.134765625-9.0380859375,3.4091796875-12.5263671875,2.271484375-3.48828125,5.4951171875-6.18359375,9.671875-8.0859375,4.1748046875-1.90234375,9.1689453125-2.8544921875,14.984375-2.8544921875,6.12890625,0,11.546875,1.0859375,16.251953125,3.2509765625,4.701171875,2.16796875,8.640625,5.41796875,11.8125,9.7509765625l-11.099609375,11.0986328125c-2.2197265625-2.7470703125-4.7568359375-4.80859375-7.611328125-6.18359375-2.853515625-1.3720703125-6.130859375-2.060546875-9.830078125-2.060546875-3.48828125,0-6.18359375.5302734375-8.0859375,1.5849609375-1.90234375,1.05859375-2.8544921875,2.591796875-2.8544921875,4.5986328125,0,2.115234375.9521484375,3.7529296875,2.8544921875,4.9150390625,1.90234375,1.1640625,4.359375,2.16796875,7.373046875,3.0126953125,3.01171875.84765625,6.18359375,1.771484375,9.513671875,2.7744140625,3.3291015625,1.005859375,6.5,2.37890625,9.5126953125,4.123046875s5.4697265625,4.0703125,7.373046875,6.9765625c1.9033203125,2.908203125,2.8544921875,6.6865234375,2.8544921875,11.3369140625,0,7.3994140625-2.591796875,13.2666015625-7.76953125,17.599609375-5.1806640625,4.3349609375-12.208984375,6.5009765625-21.087890625,6.5009765625Z" style="fill:#fff; stroke-width:0px;"/><path d="M267.2770608406,300.7252427837c-12.155191371,0-60.7399503635,30.9145733634-60.7399503635,79.8183898765,0,54.0407426121,54.522829524,55.6010239038,60.7399503635,55.6010239038s60.7399503635-1.5602812918,60.7399503635-55.6010239038c0-48.9038165131-48.5847589925-79.8183898765-60.7399503635-79.8183898765Z" style="fill:#fff; stroke-width:0px;"/><path d="M267.2770608406,139.7052136548c-6.2171208395,0-60.7399503635,1.5602812918-60.7399503635,55.6000237235,0,48.9038165131,48.5847589925,79.8183898765,60.7399503635,79.8183898765s60.7399503635-30.9145733634,60.7399503635-79.8183898765c0-54.0397424318-54.522829524-55.6000237235-60.7399503635-55.6000237235Z" style="fill:#fff; stroke-width:0px;"/><path d="M349.1568223468,252.8056037008c-22.5110583548,0-38.9800274254,8.5335384495-48.8318035304,15.6918289656-11.9561554882,8.6865660378-17.0180680636,17.4171400094-17.0180680636,19.427502443s5.0619125754,10.7409364052,17.0180680636,19.427502443c9.851776105,7.1582905161,26.3207451755,15.6918289656,48.8318035304,15.6918289656,44.4060056355,0,45.6882367996-31.5246833557,45.6882367996-35.1193314086s-1.2822311641-35.1193314086-45.6882367996-35.1193314086Z" style="fill:#fff; stroke-width:0px;"/><path d="M234.2291028649,268.4974326664c-9.8527762853-7.1582905161-26.3217453559-15.6918289656-48.8328037107-15.6918289656-44.4050054552,0-45.6872366193,31.5246833557-45.6872366193,35.1193314086s1.2822311641,35.1193314086,45.6872366193,35.1193314086c22.5110583548,0,38.9800274254-8.5335384495,48.8328037107-15.6918289656,11.9551553079-8.6865660378,17.0180680636-17.4171400094,17.0180680636-19.427502443s-5.0629127557-10.7409364052-17.0180680636-19.427502443Z" style="fill:#fff; stroke-width:0px;"/></svg>