<?xml version="1.0" encoding="UTF-8"?><svg id="Warstwa_1" xmlns="http://www.w3.org/2000/svg" viewBox="0 0 920.9172634964 575.8498702188"><path d="M267.2770608407,296.923497661c-12.8770059231,0-62.8055224659,30.7006440345-62.8055224659,81.433691246,0,50.7338681612,46.5847885695,57.787467657,62.8055224659,57.787467657s62.8055224659-7.0535994958,62.8055224659-57.787467657c0-50.7330472115-49.9285165428-81.433691246-62.8055224659-81.433691246Z" style="fill:#6b338a; stroke-width:0px;"/><path d="M267.2770608407,298.5669127543c-11.3439882068,0-55.3284754566,27.0457081364-55.3284754566,71.738946044,0,44.6939611226,41.0388327303,50.9078240324,55.3284754566,50.9078240324s55.3284754566-6.2138629098,55.3284754566-50.9078240324c0-44.6932379076-43.9844872499-71.738946044-55.3284754566-71.738946044Z" style="fill:#cd4678; stroke-width:0px;"/><path d="M267.2770608407,300.2103278477c-9.8109704904,0-47.8514284473,23.3907722383-47.8514284473,62.044200842,0,38.654054084,35.4928768912,44.0281804079,47.8514284473,44.0281804079s47.8514284473-5.3741263239,47.8514284473-44.0281804079c0-38.6534286038-38.0404579569-62.044200842-47.8514284473-62.044200842Z" style="fill:#f39443; stroke-width:0px;"/><path d="M267.2770608407,301.853742941c-8.277952774,0-40.3743814381,19.7358363401-40.3743814381,52.34945564,0,32.6141470454,29.946921052,37.1485367834,40.3743814381,37.1485367834s40.374381438-4.5343897379,40.374381438-37.1485367834c0-32.6136192999-32.096428664-52.34945564-40.374381438-52.34945564Z" style="fill:#e6e124; stroke-width:0px;"/><path d="M267.2770608407,303.4971580344c-6.7400672732,0-32.8735925939,16.0692949399-32.8735925939,42.6239267557,0,26.5550615163,24.3833551634,30.2470482563,32.8735925939,30.2470482563s32.8735925939-3.6919867401,32.8735925939-30.2470482563c0-26.5546318157-26.1335253207-42.6239267557-32.8735925939-42.6239267557Z" style="fill:#fff; stroke-width:0px;"/><path d="M267.2770608406,278.9263725578c12.8770059231,0,62.8055224659-30.7006440345,62.8055224659-81.433691246,0-50.7338681612-46.5847885695-57.787467657-62.8055224659-57.787467657s-62.8055224659,7.0535994958-62.8055224659,57.787467657c0,50.7330472115,49.9285165428,81.433691246,62.8055224659,81.433691246Z" style="fill:#6b338a; stroke-width:0px;"/><path d="M267.2770608406,277.2829574645c11.3439882067,0,55.3284754566-27.0457081364,55.3284754566-71.738946044,0-44.6939611226-41.0388327303-50.9078240324-55.3284754566-50.9078240324s-55.3284754566,6.2138629098-55.3284754566,50.9078240324c0,44.6932379076,43.9844872499,71.738946044,55.3284754566,71.738946044Z" style="fill:#cd4678; stroke-width:0px;"/><path d="M267.2770608407,275.6395423711c9.8109704904,0,47.8514284473-23.3907722383,47.8514284473-62.044200842,0-38.654054084-35.4928768912-44.0281804079-47.8514284473-44.0281804079s-47.8514284473,5.3741263239-47.8514284473,44.0281804079c0,38.6534286038,38.0404579569,62.044200842,47.8514284473,62.044200842Z" style="fill:#f39443; stroke-width:0px;"/><path d="M267.2770608407,273.9961272778c8.277952774,0,40.374381438-19.7358363401,40.374381438-52.34945564,0-32.6141470454-29.946921052-37.1485367834-40.374381438-37.1485367834s-40.3743814381,4.5343897379-40.3743814381,37.1485367834c0,32.6136192999,32.096428664,52.34945564,40.3743814381,52.34945564Z" style="fill:#e6e124; stroke-width:0px;"/><path d="M267.2770608407,272.3527121844c6.7400672731,0,32.8735925939-16.0692949399,32.8735925939-42.6239267557,0-26.5550615163-24.3833551634-30.2470482563-32.8735925939-30.2470482563s-32.8735925939,3.69198674-32.8735925939,30.2470482563c0,26.5546318158,26.1335253207,42.6239267557,32.8735925939,42.6239267557Z" style="fill:#fff; stroke-width:0px;"/><path d="M279.4287658376,287.9249351094c0,7.7480760327,25.5588555678,37.7899929724,67.7950583242,37.7899929724,42.2368862122,0,48.1091386165-28.0300006041,48.1091386165-37.7899929724s-5.8722524043-37.7899929724-48.1091386165-37.7899929724c-42.2362027564,0-67.7950583242,30.0419169397-67.7950583242,37.7899929724Z" style="fill:#6b338a; stroke-width:0px;"/><path d="M280.7969393834,287.9249351094c0,6.825661467,22.516053644,33.291064489,59.7240031338,33.291064489,37.2085515796,0,42.3817077014-24.6930069138,42.3817077014-33.291064489s-5.1731561218-33.291064489-42.3817077014-33.291064489c-37.2079494897,0-59.7240031338,26.465403022-59.7240031338,33.291064489Z" style="fill:#cd4678; stroke-width:0px;"/><path d="M282.1651129293,287.9249351094c0,5.9032469013,19.4732517202,28.7921360056,51.6529479433,28.7921360056,32.180216947,0,36.6542767863-21.3560132235,36.6542767863-28.7921360056s-4.4740598393-28.7921360057-36.6542767863-28.7921360057c-32.1796962231,0-51.6529479433,22.8888891043-51.6529479433,28.7921360057Z" style="fill:#f39443; stroke-width:0px;"/><path d="M283.5332864751,287.9249351094c0,4.9808323357,16.4304497964,24.2932075223,43.5818927529,24.2932075223,27.1518823144,0,30.9268458712-18.0190195331,30.9268458712-24.2932075223s-3.7749635568-24.2932075223-30.9268458712-24.2932075223c-27.1514429564,0-43.5818927529,19.3123751866-43.5818927529,24.2932075223Z" style="fill:#e6e124; stroke-width:0px;"/><path d="M284.901460021,287.9249351094c0,4.055488831,13.3779860769,19.7799936108,35.4852095759,19.7799936108,22.1075812327,0,25.1812286695-14.6714299012,25.1812286695-19.7799936108s-3.0736474369-19.7799936108-25.1812286695-19.7799936108c-22.107223499,0-35.4852095759,15.7245047798-35.4852095759,19.7799936108Z" style="fill:#fff; stroke-width:0px;"/><path d="M255.1253558437,287.9249351094c0-7.7480760327-25.5588555678-37.7899929724-67.7950583242-37.7899929724-42.2368862122,0-48.1091386165,28.0300006041-48.1091386165,37.7899929724s5.8722524043,37.7899929724,48.1091386165,37.7899929724c42.2362027564,0,67.7950583242-30.0419169397,67.7950583242-37.7899929724Z" style="fill:#6b338a; stroke-width:0px;"/><path d="M253.7571822979,287.9249351094c0-6.825661467-22.516053644-33.291064489-59.7240031338-33.291064489-37.2085515796,0-42.3817077014,24.6930069138-42.3817077014,33.291064489s5.1731561218,33.291064489,42.3817077014,33.291064489c37.2079494897,0,59.7240031338-26.465403022,59.7240031338-33.291064489Z" style="fill:#cd4678; stroke-width:0px;"/><path d="M252.389008752,287.9249351094c0-5.9032469013-19.4732517202-28.7921360057-51.6529479433-28.7921360057-32.180216947,0-36.6542767863,21.3560132235-36.6542767863,28.7921360057s4.4740598393,28.7921360056,36.6542767863,28.7921360056c32.1796962231,0,51.6529479433-22.8888891043,51.6529479433-28.7921360056Z" style="fill:#f39443; stroke-width:0px;"/><path d="M251.0208352062,287.9249351094c0-4.9808323357-16.4304497964-24.2932075223-43.5818927529-24.2932075223-27.1518823144,0-30.9268458712,18.0190195331-30.9268458712,24.2932075223s3.7749635568,24.2932075223,30.9268458712,24.2932075223c27.1514429564,0,43.5818927529-19.3123751866,43.5818927529-24.2932075223Z" style="fill:#e6e124; stroke-width:0px;"/><path d="M249.6526616603,287.9249351094c0-4.055488831-13.3779860769-19.7799936108-35.4852095759-19.7799936108-22.1075812327,0-25.1812286695,14.6714299012-25.1812286695,19.7799936108s3.0736474369,19.7799936108,25.1812286695,19.7799936108c22.107223499,0,35.4852095759-15.7245047798,35.4852095759-19.7799936108Z" style="fill:#fff; stroke-width:0px;"/><path d="M459.483494305,280.9264334843v-110.990234375h18.234375v110.990234375h-18.234375ZM472.0098614925,186.5846366093v-16.6484375h61.3623046875v16.6484375h-61.3623046875ZM472.0098614925,232.2496756718v-16.0146484375h56.763671875v16.0146484375h-56.763671875ZM472.0098614925,280.9264334843v-16.6484375h62.1552734375v16.6484375h-62.1552734375Z" style="fill:#fff; stroke-width:0px;"/><path d="M546.62607243,280.9264334843v-110.990234375h18.234375v110.990234375h-18.234375ZM559.1524396175,239.0670584843v-15.85546875h27.7470703125c3.806640625,0,7.16015625-.765625,10.068359375-2.298828125,2.90625-1.53125,5.205078125-3.69921875,6.8984375-6.5009765625,1.689453125-2.7998046875,2.5361328125-6.1044921875,2.5361328125-9.91015625,0-3.8046875-.8466796875-7.107421875-2.5361328125-9.9091796875-1.693359375-2.7998046875-3.9921875-4.9677734375-6.8984375-6.5009765625-2.908203125-1.53125-6.26171875-2.298828125-10.068359375-2.298828125h-27.7470703125v-15.8564453125h28.69921875c6.9755859375,0,13.2392578125,1.427734375,18.7880859375,4.28125,5.55078125,2.8544921875,9.935546875,6.8720703125,13.1611328125,12.05078125,3.2236328125,5.1796875,4.8359375,11.2568359375,4.8359375,18.2333984375s-1.6123046875,13.056640625-4.8359375,18.234375c-3.2255859375,5.1806640625-7.6103515625,9.1962890625-13.1611328125,12.05078125-5.548828125,2.853515625-11.8125,4.2802734375-18.7880859375,4.2802734375h-28.69921875Z" style="fill:#fff; stroke-width:0px;"/><path d="M635.3848614925,280.9264334843v-110.990234375h18.2333984375v110.990234375h-18.2333984375ZM647.91122868,233.8346366093v-15.0625h28.064453125c5.6015625,0,9.9619140625-1.4521484375,13.080078125-4.3603515625,3.1171875-2.90625,4.677734375-6.94921875,4.677734375-12.1298828125,0-4.650390625-1.533203125-8.5615234375-4.59765625-11.7333984375-3.0673828125-3.1708984375-7.400390625-4.755859375-13.001953125-4.755859375h-28.22265625v-15.8564453125h29.015625c6.9765625,0,13.10546875,1.40234375,18.392578125,4.2021484375,5.28515625,2.8017578125,9.3798828125,6.607421875,12.2880859375,11.416015625,2.90625,4.8115234375,4.3603515625,10.28125,4.3603515625,16.4111328125,0,6.4482421875-1.4541015625,12.0498046875-4.3603515625,16.806640625-2.908203125,4.7568359375-7.0029296875,8.4580078125-12.2880859375,11.0986328125-5.287109375,2.6435546875-11.416015625,3.9638671875-18.392578125,3.9638671875h-29.015625ZM696.27060368,280.9264334843l-38.845703125-48.201171875,16.96484375-6.18359375,44.8720703125,54.384765625h-22.9912109375Z" style="fill:#fff; stroke-width:0px;"/><path d="M459.561619305,406.6647147343v-110.990234375h18.2333984375v110.990234375h-18.2333984375ZM472.08700993,406.6647147343v-16.6484375h58.0322265625v16.6484375h-58.0322265625Z" style="fill:#fff; stroke-width:0px;"/><path d="M573.18075993,408.2506522343c-6.8720703125,0-13.080078125-1.744140625-18.6298828125-5.232421875s-9.9365234375-8.2177734375-13.16015625-14.19140625c-3.2255859375-5.970703125-4.8369140625-12.6572265625-4.8369140625-20.0576171875,0-7.50390625,1.611328125-14.2421875,4.8369140625-20.2158203125,3.2236328125-5.970703125,7.6103515625-10.7275390625,13.16015625-14.26953125,5.5498046875-3.541015625,11.7578125-5.3125,18.6298828125-5.3125,5.8125,0,10.9658203125,1.244140625,15.4599609375,3.7265625,4.4912109375,2.484375,8.0595703125,5.8935546875,10.7021484375,10.2265625,2.640625,4.3359375,3.96484375,9.2509765625,3.96484375,14.74609375v21.880859375c0,5.4970703125-1.296875,10.4130859375-3.884765625,14.74609375-2.591796875,4.3349609375-6.16015625,7.744140625-10.703125,10.2265625-4.546875,2.482421875-9.7265625,3.7265625-15.5390625,3.7265625ZM576.0352521175,391.7604178593c6.4462890625,0,11.6533203125-2.1650390625,15.6181640625-6.5009765625,3.962890625-4.3330078125,5.9453125-9.8828125,5.9453125-16.6484375,0-4.5439453125-.8984375-8.5625-2.6953125-12.05078125-1.798828125-3.48828125-4.30859375-6.2080078125-7.53125-8.1650390625-3.2255859375-1.955078125-7.00390625-2.93359375-11.3369140625-2.93359375-4.2294921875,0-7.955078125.978515625-11.1787109375,2.93359375-3.224609375,1.95703125-5.76171875,4.6767578125-7.6103515625,8.1650390625-1.8505859375,3.48828125-2.7744140625,7.5068359375-2.7744140625,12.05078125,0,4.5458984375.923828125,8.5625,2.7744140625,12.05078125,1.8486328125,3.48828125,4.3857421875,6.2109375,7.6103515625,8.1650390625,3.2236328125,1.95703125,6.94921875,2.93359375,11.1787109375,2.93359375ZM596.48935368,406.6647147343v-20.4541015625l3.01171875-18.55078125-3.01171875-18.392578125v-18.7099609375h17.44140625v76.107421875h-17.44140625Z" style="fill:#fff; stroke-width:0px;"/><path d="M635.698338055,406.6647147343v-114.1611328125h17.44140625v56.763671875l-3.013671875,18.392578125,3.013671875,18.55078125v20.4541015625h-17.44140625ZM676.4473614925,408.2506522343c-5.8154296875,0-10.9951171875-1.244140625-15.5390625-3.7265625-4.5458984375-2.482421875-8.11328125-5.8916015625-10.7021484375-10.2265625-2.591796875-4.3330078125-3.884765625-9.2490234375-3.884765625-14.74609375v-21.880859375c0-5.4951171875,1.3203125-10.41015625,3.9638671875-14.74609375,2.6416015625-4.3330078125,6.2353515625-7.7421875,10.7822265625-10.2265625,4.54296875-2.482421875,9.671875-3.7265625,15.3798828125-3.7265625,6.8701171875,0,13.0810546875,1.771484375,18.6298828125,5.3125,5.5498046875,3.5419921875,9.935546875,8.298828125,13.16015625,14.26953125,3.2236328125,5.9736328125,4.8359375,12.7119140625,4.8359375,20.2158203125,0,7.400390625-1.6123046875,14.0869140625-4.8359375,20.0576171875-3.224609375,5.9736328125-7.6103515625,10.703125-13.16015625,14.19140625-5.548828125,3.48828125-11.759765625,5.232421875-18.6298828125,5.232421875ZM673.592869305,391.7604178593c4.2265625,0,7.953125-.9765625,11.1787109375-2.93359375,3.2236328125-1.9541015625,5.759765625-4.6767578125,7.6103515625-8.1650390625,1.84765625-3.48828125,2.775390625-7.5048828125,2.775390625-12.05078125,0-4.5439453125-.927734375-8.5625-2.775390625-12.05078125-1.8505859375-3.48828125-4.38671875-6.2080078125-7.6103515625-8.1650390625-3.2255859375-1.955078125-6.9521484375-2.93359375-11.1787109375-2.93359375-4.228515625,0-7.982421875.978515625-11.2578125,2.93359375-3.27734375,1.95703125-5.814453125,4.6767578125-7.6103515625,8.1650390625-1.7978515625,3.48828125-2.6953125,7.5068359375-2.6953125,12.05078125,0,4.5458984375.8974609375,8.5625,2.6953125,12.05078125,1.7958984375,3.48828125,4.3330078125,6.2109375,7.6103515625,8.1650390625,3.275390625,1.95703125,7.029296875,2.93359375,11.2578125,2.93359375Z" style="fill:#fff; stroke-width:0px;"/><path d="M753.393650555,408.2506522343c-4.2294921875,0-8.2998046875-.5556640625-12.208984375-1.6650390625-3.912109375-1.1103515625-7.5068359375-2.6953125-10.7822265625-4.7568359375-3.2783203125-2.0615234375-6.1318359375-4.5712890625-8.5615234375-7.53125l11.0986328125-11.099609375c2.640625,3.0673828125,5.6806640625,5.3662109375,9.1162109375,6.8974609375,3.4345703125,1.533203125,7.318359375,2.298828125,11.654296875,2.298828125,3.91015625,0,6.8701171875-.5791015625,8.87890625-1.744140625,2.0078125-1.1611328125,3.013671875-2.853515625,3.013671875-5.0732421875,0-2.32421875-.951171875-4.123046875-2.8544921875-5.3916015625-1.9033203125-1.267578125-4.3603515625-2.3505859375-7.373046875-3.25-3.0126953125-.896484375-6.18359375-1.8232421875-9.5126953125-2.7744140625-3.330078125-.951171875-6.501953125-2.2451171875-9.513671875-3.884765625-3.013671875-1.6376953125-5.470703125-3.884765625-7.373046875-6.7392578125-1.90234375-2.853515625-2.8544921875-6.552734375-2.8544921875-11.0986328125,0-4.8603515625,1.134765625-9.0380859375,3.4091796875-12.5263671875,2.271484375-3.48828125,5.4951171875-6.18359375,9.671875-8.0859375,4.1748046875-1.90234375,9.1689453125-2.8544921875,14.984375-2.8544921875,6.12890625,0,11.546875,1.0859375,16.251953125,3.2509765625,4.701171875,2.16796875,8.640625,5.41796875,11.8125,9.7509765625l-11.099609375,11.0986328125c-2.2197265625-2.7470703125-4.7568359375-4.80859375-7.611328125-6.18359375-2.853515625-1.3720703125-6.130859375-2.060546875-9.830078125-2.060546875-3.48828125,0-6.18359375.5302734375-8.0859375,1.5849609375-1.90234375,1.05859375-2.8544921875,2.591796875-2.8544921875,4.5986328125,0,2.115234375.9521484375,3.7529296875,2.8544921875,4.9150390625,1.90234375,1.1640625,4.359375,2.16796875,7.373046875,3.0126953125,3.01171875.84765625,6.18359375,1.771484375,9.513671875,2.7744140625,3.3291015625,1.005859375,6.5,2.37890625,9.5126953125,4.123046875s5.4697265625,4.0703125,7.373046875,6.9765625c1.9033203125,2.908203125,2.8544921875,6.6865234375,2.8544921875,11.3369140625,0,7.3994140625-2.591796875,13.2666015625-7.76953125,17.599609375-5.1806640625,4.3349609375-12.208984375,6.5009765625-21.087890625,6.5009765625Z" style="fill:#fff; stroke-width:0px;"/></svg>