<?xml version="1.0" encoding="UTF-8"?><svg id="Warstwa_1" xmlns="http://www.w3.org/2000/svg" viewBox="0 0 575.8499 575.8498702188"><path d="M287.92495,301.1643169377c-18.9456479569,0-92.4043465923,45.1691641211-92.4043465923,119.8115505571,0,74.6435942807,68.5391471943,85.0213958966,92.4043465923,85.0213958966s92.4043465923-10.3778016159,92.4043465923-85.0213958966c0-74.642386436-73.4586986353-119.8115505571-92.4043465923-119.8115505571Z" style="fill:#6b338a; stroke-width:0px;"/><path d="M287.92495,303.5822364441c-16.6901536177,0-81.4035362144,39.7917394896-81.4035362144,105.5478909202,0,65.7572154805,60.3795076367,74.8995316249,81.4035362144,74.8995316249s81.4035362144-9.1423161444,81.4035362144-74.8995316249c0-65.7561514307-64.7133825967-105.5478909202-81.4035362144-105.5478909202Z" style="fill:#cd4678; stroke-width:0px;"/><path d="M287.92495,306.0001559505c-14.4346592785,0-70.4027258365,34.4143148581-70.4027258365,91.2842312834,0,56.8708366803,52.2198680791,64.7776673532,70.4027258365,64.7776673532s70.4027258365-7.9068306729,70.4027258365-64.7776673532c0-56.8699164253-55.968066558-91.2842312834-70.4027258365-91.2842312834Z" style="fill:#f39443; stroke-width:0px;"/><path d="M287.92495,308.4180754569c-12.1791649392,0-59.4019154586,29.0368902266-59.4019154586,77.0205716465,0,47.98445788,44.0602285215,54.6558030815,59.4019154586,54.6558030815s59.4019154586-6.6713452015,59.4019154586-54.6558030815c0-47.9836814199-47.2227505194-77.0205716465-59.4019154586-77.0205716465Z" style="fill:#e6e124; stroke-width:0px;"/><path d="M287.92495,310.8359949633c-9.9165087386,0-48.3661742553,23.642390682-48.3661742553,62.7116206731,0,39.0698621998,35.8746796959,44.5017988981,48.3661742553,44.5017988981s48.3661742553-5.4319366984,48.3661742553-44.5017988981c0-39.0692299911-38.4496655167-62.7116206731-48.3661742553-62.7116206731Z" style="fill:#fff; stroke-width:0px;"/><path d="M287.92495,274.6855532811c18.9456479569,0,92.4043465923-45.1691641211,92.4043465923-119.8115505571,0-74.6435942807-68.5391471943-85.0213958966-92.4043465923-85.0213958966s-92.4043465923,10.3778016159-92.4043465923,85.0213958966c0,74.642386436,73.4586986353,119.8115505571,92.4043465923,119.8115505571Z" style="fill:#6b338a; stroke-width:0px;"/><path d="M287.92495,272.2676337747c16.6901536177,0,81.4035362144-39.7917394896,81.4035362144-105.5478909202,0-65.7572154805-60.3795076367-74.8995316249-81.4035362144-74.8995316249s-81.4035362144,9.1423161444-81.4035362144,74.8995316249c0,65.7561514307,64.7133825967,105.5478909202,81.4035362144,105.5478909202Z" style="fill:#cd4678; stroke-width:0px;"/><path d="M287.92495,269.8497142683c14.4346592784,0,70.4027258365-34.4143148581,70.4027258365-91.2842312834,0-56.8708366803-52.2198680791-64.7776673532-70.4027258365-64.7776673532s-70.4027258365,7.9068306729-70.4027258365,64.7776673532c0,56.8699164253,55.968066558,91.2842312834,70.4027258365,91.2842312834Z" style="fill:#f39443; stroke-width:0px;"/><path d="M287.92495,267.4317947619c12.1791649392,0,59.4019154586-29.0368902265,59.4019154586-77.0205716465,0-47.98445788-44.0602285215-54.6558030815-59.4019154586-54.6558030815s-59.4019154586,6.6713452015-59.4019154586,54.6558030815c0,47.98368142,47.2227505194,77.0205716465,59.4019154586,77.0205716465Z" style="fill:#e6e124; stroke-width:0px;"/><path d="M287.92495,265.0138752555c9.9165087386,0,48.3661742553-23.642390682,48.3661742553-62.7116206731,0-39.0698621998-35.8746796959-44.5017988981-48.3661742553-44.5017988981s-48.3661742553,5.4319366983-48.3661742553,44.5017988981c0,39.0692299911,38.4496655167,62.7116206731,48.3661742553,62.7116206731Z" style="fill:#fff; stroke-width:0px;"/><path d="M305.8034790868,287.9249351094c0,11.3995692582,37.6041668895,55.5995630836,99.7453380001,55.5995630836,62.1421766637,0,70.7818889874-41.2399067648,70.7818889874-55.5995630836s-8.6397123238-55.5995630836-70.7818889874-55.5995630836c-62.1411711106,0-99.7453380001,44.1999938254-99.7453380001,55.5995630836Z" style="fill:#6b338a; stroke-width:0px;"/><path d="M307.8164419214,287.9249351094c0,10.0424415427,33.1273611479,48.980391225,87.8705768023,48.980391225,54.7441014956,0,62.3552492496-36.3302633221,62.3552492496-48.980391225s-7.611147754-48.980391225-62.3552492496-48.980391225c-54.7432156544,0-87.8705768023,38.9379496823-87.8705768023,48.980391225Z" style="fill:#cd4678; stroke-width:0px;"/><path d="M309.829404756,287.9249351094c0,8.6853138271,28.6505554064,42.3612193664,75.9958156046,42.3612193664,47.3460263276,0,53.9286095118-31.4206198794,53.9286095118-42.3612193664s-6.5825831843-42.3612193664-53.9286095118-42.3612193664c-47.3452601982,0-75.9958156046,33.6759055393-75.9958156046,42.3612193664Z" style="fill:#f39443; stroke-width:0px;"/><path d="M311.8423675906,287.9249351094c0,7.3281861115,24.1737496648,35.7420475078,64.1210544068,35.7420475078,39.9479511595,0,45.501969774-26.5109764368,45.501969774-35.7420475078s-5.5540186146-35.7420475078-45.501969774-35.7420475078c-39.947304742,0-64.1210544068,28.4138613963-64.1210544068,35.7420475078Z" style="fill:#e6e124; stroke-width:0px;"/><path d="M313.8553304251,287.9249351094c0,5.9667491142,19.6827287414,29.1018578215,52.2085873314,29.1018578215,32.5263849154,0,37.0485729637-21.5857434246,37.0485729637-29.1018578215s-4.5221880483-29.1018578215-37.0485729637-29.1018578215c-32.52585859,0-52.2085873314,23.1351087073-52.2085873314,29.1018578215Z" style="fill:#fff; stroke-width:0px;"/><path d="M270.0464209131,287.9249351094c0-11.3995692583-37.6041668895-55.5995630836-99.7453380001-55.5995630836-62.1421766637,0-70.7818889874,41.2399067648-70.7818889874,55.5995630836s8.6397123237,55.5995630836,70.7818889874,55.5995630836c62.1411711106,0,99.7453380001-44.1999938254,99.7453380001-55.5995630836Z" style="fill:#6b338a; stroke-width:0px;"/><path d="M268.0334580786,287.9249351094c0-10.0424415427-33.1273611479-48.980391225-87.8705768024-48.980391225-54.7441014956,0-62.3552492496,36.3302633221-62.3552492496,48.980391225s7.611147754,48.980391225,62.3552492496,48.980391225c54.7432156544,0,87.8705768024-38.9379496823,87.8705768024-48.980391225Z" style="fill:#cd4678; stroke-width:0px;"/><path d="M266.020495244,287.9249351094c0-8.6853138271-28.6505554064-42.3612193664-75.9958156046-42.3612193664-47.3460263275,0-53.9286095118,31.4206198794-53.9286095118,42.3612193664s6.5825831843,42.3612193664,53.9286095118,42.3612193664c47.3452601982,0,75.9958156046-33.6759055393,75.9958156046-42.3612193664Z" style="fill:#f39443; stroke-width:0px;"/><path d="M264.0075324094,287.9249351094c0-7.3281861115-24.1737496648-35.7420475078-64.1210544068-35.7420475078-39.9479511595,0-45.501969774,26.5109764368-45.501969774,35.7420475078s5.5540186146,35.7420475078,45.501969774,35.7420475078c39.947304742,0,64.1210544068-28.4138613963,64.1210544068-35.7420475078Z" style="fill:#e6e124; stroke-width:0px;"/><path d="M261.9945695749,287.9249351094c0-5.9667491142-19.6827287414-29.1018578215-52.2085873314-29.1018578215-32.5263849154,0-37.0485729637,21.5857434246-37.0485729637,29.1018578215s4.5221880483,29.1018578215,37.0485729637,29.1018578215c32.52585859,0,52.2085873314-23.1351087073,52.2085873314-29.1018578215Z" style="fill:#fff; stroke-width:0px;"/></svg>