<svg width="219" height="40" viewBox="0 0 219 40" fill="none" xmlns="http://www.w3.org/2000/svg">
<rect width="219" height="40" fill="#1E1E1E"/>
<rect width="13531" height="6816" transform="translate(-9361 -1375)" fill="#2E2E2E"/>
<g clip-path="url(#clip0_1_2)">
<rect width="1440" height="5686" transform="translate(-435 -924)" fill="white"/>
<rect x="-233" y="-219" width="580" height="478" rx="32" fill="#F5F3F5"/>
<path d="M213.391 38.6376V0.900879H218.056V38.6376H213.391Z" fill="#0F1B24"/>
<path d="M200.923 38.6376V0.900879H205.589V38.6376H200.923Z" fill="#0F1B24"/>
<path d="M182.251 39.0991C179.721 39.0991 177.534 38.5693 175.688 37.5096C173.842 36.4158 172.406 34.8776 171.381 32.8951C170.355 30.8784 169.843 28.4856 169.843 25.7169C169.843 22.9824 170.355 20.6238 171.381 18.6413C172.406 16.6245 173.842 15.0863 175.688 14.0267C177.534 12.9329 179.721 12.386 182.251 12.386C184.78 12.386 186.968 12.9329 188.814 14.0267C190.694 15.0863 192.129 16.6245 193.121 18.6413C194.146 20.6238 194.659 22.9824 194.659 25.7169C194.659 28.4856 194.146 30.8784 193.121 32.8951C192.129 34.8776 190.694 36.4158 188.814 37.5096C186.968 38.5693 184.78 39.0991 182.251 39.0991ZM182.251 35.4074C184.575 35.4074 186.438 34.5871 187.84 32.9464C189.241 31.3056 189.942 28.8958 189.942 25.7169C189.942 22.538 189.241 20.1453 187.84 18.5387C186.438 16.9322 184.575 16.1289 182.251 16.1289C179.892 16.1289 178.012 16.9322 176.611 18.5387C175.244 20.1453 174.56 22.538 174.56 25.7169C174.56 28.8958 175.244 31.3056 176.611 32.9464C178.012 34.5871 179.892 35.4074 182.251 35.4074Z" fill="#0F1B24"/>
<path d="M136.844 38.6375V2.49023H151.815C155.678 2.49023 158.652 3.39605 160.737 5.20769C162.856 7.01933 163.916 9.54878 163.916 12.7961C163.916 14.9495 163.437 16.7782 162.48 18.2822C161.523 19.7862 160.173 20.9313 158.43 21.7175C156.72 22.5037 154.721 22.8968 152.431 22.8968L153.302 22.179H154.533C155.934 22.179 157.182 22.5379 158.276 23.2557C159.37 23.9393 160.275 25.0673 160.993 26.6397L166.12 38.6375H160.839L155.866 26.7422C155.285 25.2724 154.43 24.3153 153.302 23.871C152.208 23.4266 150.824 23.2044 149.149 23.2044H141.612V38.6375H136.844ZM141.612 19.5128H151.098C153.73 19.5128 155.729 18.9488 157.096 17.8208C158.498 16.6928 159.199 15.0521 159.199 12.8986C159.199 10.7793 158.498 9.17278 157.096 8.07896C155.729 6.95096 153.73 6.38696 151.098 6.38696H141.612V19.5128Z" fill="#0F1B24"/>
<path d="M117.659 39.0991C115.13 39.0991 112.942 38.5693 111.096 37.5096C109.25 36.4158 107.815 34.8776 106.789 32.8951C105.764 30.8784 105.251 28.4856 105.251 25.7169C105.251 22.9824 105.764 20.6238 106.789 18.6413C107.815 16.6245 109.25 15.0863 111.096 14.0267C112.942 12.9329 115.13 12.386 117.659 12.386C120.188 12.386 122.376 12.9329 124.222 14.0267C126.102 15.0863 127.538 16.6245 128.529 18.6413C129.554 20.6238 130.067 22.9824 130.067 25.7169C130.067 28.4856 129.554 30.8784 128.529 32.8951C127.538 34.8776 126.102 36.4158 124.222 37.5096C122.376 38.5693 120.188 39.0991 117.659 39.0991ZM117.659 35.4074C119.983 35.4074 121.846 34.5871 123.248 32.9464C124.649 31.3056 125.35 28.8958 125.35 25.7169C125.35 22.538 124.649 20.1453 123.248 18.5387C121.846 16.9322 119.983 16.1289 117.659 16.1289C115.3 16.1289 113.42 16.9322 112.019 18.5387C110.652 20.1453 109.968 22.538 109.968 25.7169C109.968 28.8958 110.652 31.3056 112.019 32.9464C113.42 34.5871 115.3 35.4074 117.659 35.4074Z" fill="#0F1B24"/>
<path d="M76.5967 38.6376V18.9489C76.5967 17.9576 76.5625 16.9493 76.4942 15.9238C76.4258 14.8983 76.3233 13.8729 76.1865 12.8474H80.6985L81.2113 18.3849H80.596C81.3822 16.4365 82.5956 14.9496 84.2363 13.9242C85.8771 12.8987 87.7913 12.386 89.9789 12.386C93.0211 12.386 95.3113 13.2234 96.8494 14.8983C98.3876 16.5391 99.1567 19.1027 99.1567 22.5893V38.6376H94.4909V22.8456C94.4909 20.4871 94.0294 18.7951 93.1065 17.7696C92.1836 16.71 90.748 16.1802 88.7996 16.1802C86.4753 16.1802 84.6294 16.8809 83.2622 18.2824C81.9291 19.6838 81.2625 21.5809 81.2625 23.9736V38.6376H76.5967Z" fill="#0F1B24"/>
<path d="M55.3972 39.0991C53.1412 39.0991 51.1586 38.5693 49.4496 37.5096C47.7405 36.45 46.4074 34.9118 45.4503 32.8951C44.4932 30.8784 44.0146 28.4856 44.0146 25.7169C44.0146 22.9482 44.4932 20.5725 45.4503 18.59C46.4074 16.5733 47.7405 15.0351 49.4496 13.9754C51.1586 12.9158 53.1412 12.386 55.3972 12.386C57.6874 12.386 59.6699 12.9671 61.3448 14.1293C63.0539 15.2573 64.1819 16.8125 64.7288 18.7951H64.1136L64.6776 12.8474H69.1896C69.087 13.8729 68.9845 14.8983 68.8819 15.9238C68.8136 16.9493 68.7794 17.9576 68.7794 18.9489V38.6376H64.1136V32.7413H64.6776C64.1306 34.6896 63.0026 36.2449 61.2936 37.4071C59.6186 38.5351 57.6532 39.0991 55.3972 39.0991ZM56.4739 35.4074C58.7983 35.4074 60.6612 34.5871 62.0626 32.9464C63.4641 31.3056 64.1648 28.8958 64.1648 25.7169C64.1648 22.538 63.4641 20.1453 62.0626 18.5387C60.6612 16.9322 58.7983 16.1289 56.4739 16.1289C54.1496 16.1289 52.2696 16.9322 50.8339 18.5387C49.4325 20.1453 48.7317 22.538 48.7317 25.7169C48.7317 28.8958 49.4325 31.3056 50.8339 32.9464C52.2354 34.5871 54.1154 35.4074 56.4739 35.4074Z" fill="#0F1B24"/>
<path d="M33.085 38.6375V12.8473H37.7508V38.6375H33.085ZM32.6748 7.20734V2.18262H38.2123V7.20734H32.6748Z" fill="#0F1B24"/>
<path d="M0 38.6375V2.49023H14.9716C18.8342 2.49023 21.7909 3.41314 23.8418 5.25896C25.8927 7.10478 26.9182 9.65133 26.9182 12.8986C26.9182 16.1459 25.8927 18.7095 23.8418 20.5895C21.7909 22.4353 18.8342 23.3582 14.9716 23.3582H4.76836V38.6375H0ZM4.76836 19.4615H14.5102C17.0396 19.4615 18.9538 18.8975 20.2527 17.7695C21.5516 16.6073 22.2011 14.9837 22.2011 12.8986C22.2011 10.8135 21.5516 9.20696 20.2527 8.07896C18.9538 6.95096 17.0396 6.38696 14.5102 6.38696H4.76836V19.4615Z" fill="#0F1B24"/>
</g>
<defs>
<clipPath id="clip0_1_2">
<rect width="1440" height="5686" fill="white" transform="translate(-435 -924)"/>
</clipPath>
</defs>
</svg>
