<svg width="45" height="44" viewBox="0 0 45 44" fill="none" xmlns="http://www.w3.org/2000/svg">
<g id="GitHub logo" clip-path="url(#clip0_385_6396)">
<g id="XMLID_24_">
<path id="XMLID_26_" fill-rule="evenodd" clip-rule="evenodd" d="M22.9482 0.542236C10.7967 0.542236 0.948242 10.3907 0.948242 22.5422C0.948242 32.2583 7.25262 40.504 15.9925 43.4208C17.089 43.6253 17.4989 42.9386 17.4989 42.3603C17.4989 41.8301 17.4749 40.1061 17.4749 38.2619C11.351 39.5879 10.0611 35.6701 10.0611 35.6701C9.06074 33.1263 7.61355 32.4517 7.61355 32.4517C5.61207 31.0896 7.75793 31.1136 7.75793 31.1136C9.96395 31.27 11.1336 33.3798 11.1336 33.3798C13.0981 36.7434 16.2812 35.7663 17.535 35.212C17.7275 33.7897 18.3068 32.8255 18.9332 32.2704C14.0511 31.7161 8.90348 29.8229 8.90348 21.3967C8.90348 18.9982 9.75941 17.0328 11.1696 15.4902C10.9402 14.9359 10.1934 12.6938 11.3862 9.66794C11.3862 9.66794 13.2304 9.07755 17.4379 11.9221C19.1979 11.44 21.0782 11.1865 22.9474 11.1865C24.8157 11.1985 26.6968 11.44 28.4568 11.9221C32.6523 9.07755 34.4965 9.66794 34.4965 9.66794C35.6902 12.6938 34.9425 14.9359 34.7131 15.4902C36.1233 17.0336 36.9793 18.9982 36.9793 21.3967C36.9793 29.8469 31.8316 31.7032 26.9375 32.2463C27.7212 32.9338 28.4319 34.2718 28.4319 36.3206C28.4319 39.2622 28.4079 41.6367 28.4079 42.3603C28.4079 42.9507 28.8057 43.6261 29.9143 43.4208C38.6559 40.504 44.9482 32.2704 44.9482 22.5422C44.9482 10.3907 35.0998 0.542236 22.9482 0.542236Z" fill="#1C1C1C"/>
<path id="XMLID_30_" d="M9.27813 32.126C9.23 32.2342 9.06157 32.2703 8.9043 32.1981C8.74789 32.126 8.65078 31.9816 8.7118 31.8724C8.75993 31.7642 8.92836 31.7281 9.08563 31.8003C9.24204 31.8724 9.33829 32.0177 9.27813 32.126Z" fill="#1C1C1C"/>
<path id="XMLID_31_" d="M10.1701 33.1263C10.0619 33.2226 9.85647 33.1745 9.72413 33.0301C9.57975 32.8737 9.55569 32.6683 9.66397 32.572C9.77225 32.4758 9.96561 32.5239 10.11 32.6683C10.2544 32.8247 10.2784 33.0301 10.1701 33.1263Z" fill="#1C1C1C"/>
<path id="XMLID_32_" d="M11.0382 34.3921C10.9059 34.4884 10.6885 34.4042 10.5441 34.1996C10.4117 34.0071 10.4117 33.7656 10.5441 33.6694C10.6764 33.5731 10.8938 33.6574 11.0382 33.8499C11.1826 34.0544 11.1826 34.2959 11.0382 34.3921Z" fill="#1C1C1C"/>
<path id="XMLID_33_" d="M12.2316 35.6099C12.1113 35.7423 11.8578 35.7062 11.6653 35.5257C11.4728 35.3453 11.4238 35.0917 11.545 34.9594C11.6661 34.8271 11.9308 34.8631 12.1113 35.0436C12.3038 35.2361 12.3519 35.4888 12.2316 35.6099Z" fill="#1C1C1C"/>
<path id="XMLID_34_" d="M13.8706 36.3205C13.8224 36.4889 13.5689 36.574 13.3163 36.5009C13.0628 36.4288 12.9064 36.2234 12.9545 36.0549C13.0026 35.8865 13.2561 35.8014 13.5088 35.8745C13.7503 35.9466 13.9187 36.152 13.8706 36.3205Z" fill="#1C1C1C"/>
<path id="XMLID_35_" d="M15.6665 36.4539C15.6786 36.6343 15.462 36.7916 15.1965 36.7916C14.9309 36.8036 14.7264 36.6472 14.7144 36.4659C14.7144 36.2854 14.9189 36.1282 15.1844 36.1282C15.45 36.1282 15.6665 36.2725 15.6665 36.4539Z" fill="#1C1C1C"/>
<path id="XMLID_36_" d="M17.3426 36.1762C17.3787 36.3567 17.1983 36.538 16.9327 36.5861C16.6792 36.6342 16.4386 36.526 16.4145 36.3446C16.3784 36.1642 16.5709 35.9828 16.8244 35.9347C17.078 35.8866 17.3065 35.9957 17.3426 36.1762Z" fill="#1C1C1C"/>
</g>
</g>
<defs>
<clipPath id="clip0_385_6396">
<rect width="44" height="44" fill="white" transform="translate(0.948242)"/>
</clipPath>
</defs>
</svg>
