<svg width="44" height="44" viewBox="0 0 44 44" fill="none" xmlns="http://www.w3.org/2000/svg">
<g id="Group">
<path id="Vector" d="M22.0194 10.7702C21.6325 10.7702 21.2498 10.7899 20.8727 10.8286C20.4956 10.8673 20.1238 10.9247 19.7583 10.9999C19.3927 11.0752 19.0337 11.1684 18.6819 11.2784L17.6492 11.6583L16.666 12.1339L15.7382 12.6994L14.8713 13.349L14.0713 14.077L13.344 14.8777L12.6949 15.7452L12.1296 16.6738L11.6546 17.6576C11.5118 17.9941 11.3848 18.3391 11.2748 18.6913C11.1649 19.0435 11.0718 19.403 10.9966 19.7688C10.9213 20.1345 10.8641 20.5066 10.8253 20.8841C10.7865 21.2616 10.7671 21.6446 10.7671 22.0318C10.7671 22.419 10.7868 22.802 10.8253 23.1794C10.8636 23.5539 10.9207 23.9262 10.9966 24.2949C11.0718 24.662 11.1649 25.0202 11.2748 25.3723C11.3848 25.7245 11.5116 26.0694 11.6546 26.406L12.1296 27.3899L12.6949 28.3184L13.344 29.186L14.0713 29.9867L14.8713 30.7146L15.7382 31.3642L16.666 31.9298L17.6492 32.4054L18.6819 32.7853L19.7583 33.0638C20.1266 33.1397 20.4986 33.1969 20.8727 33.2352C21.2537 33.2741 21.6364 33.2936 22.0194 33.2935C22.4063 33.2935 22.7891 33.2737 23.166 33.2352C23.5401 33.1969 23.9121 33.1397 24.2804 33.0638L25.3569 32.7853L26.3896 32.4054L27.3727 31.9298L28.3006 31.3642L29.1675 30.7146L29.9676 29.9867L30.695 29.186L31.3441 28.3184L31.9093 27.3899L32.3844 26.406L32.7641 25.3723C32.8741 25.0202 32.9671 24.6606 33.0424 24.2949L33.2136 23.1793C33.2523 22.8018 33.272 22.4188 33.272 22.0316C33.272 21.6444 33.2523 21.2614 33.2136 20.884C33.1754 20.5095 33.1182 20.1373 33.0424 19.7687C32.9671 19.4015 32.8741 19.0435 32.7641 18.6912L32.3844 17.6575L31.9093 16.6736L31.3441 15.745L30.695 14.8775L29.9676 14.0768L29.1675 13.3489L28.3006 12.6993L27.3727 12.1337L26.3896 11.6581L25.3569 11.2783L24.2804 10.9998L23.166 10.8285C22.785 10.7895 22.4023 10.77 22.0194 10.77V10.7702ZM22.0194 14.6572C22.2753 14.6572 22.5277 14.67 22.7764 14.6951L23.5094 14.8062L24.2174 14.987L24.8954 15.2337L25.54 15.5429L26.1462 15.9108L26.7128 16.334L27.2352 16.8088L27.7096 17.3316L28.1324 17.8987L28.5001 18.5068L28.8088 19.1521C28.9015 19.373 28.9838 19.5993 29.0555 19.8308C29.1271 20.0622 29.1873 20.2988 29.2359 20.5397C29.2845 20.7806 29.3205 21.0258 29.3468 21.2747L29.3846 22.0325C29.3846 22.2885 29.3719 22.5413 29.3468 22.7904C29.3217 23.0395 29.2848 23.2846 29.2359 23.5254C29.187 23.7662 29.1266 24.0027 29.0555 24.2343L28.8088 24.913L28.5001 25.5583L28.1324 26.1663L27.7096 26.7335L27.2352 27.2563L26.7128 27.7311L26.1462 28.1543L25.54 28.5221L24.8954 28.8314L24.2174 29.0781L23.5094 29.2589L22.7764 29.3699C22.5248 29.3951 22.2721 29.4077 22.0193 29.4077C21.7664 29.4077 21.5137 29.3951 21.262 29.3699L20.529 29.2589C20.2884 29.21 20.0522 29.1496 19.8208 29.0781L19.1428 28.8314L18.4982 28.5221L17.8921 28.1543L17.3254 27.7311L16.803 27.2563L16.3287 26.7335L15.9058 26.1663L15.5382 25.5583L15.2295 24.913L14.9828 24.2343L14.8024 23.5254L14.6914 22.7904C14.6662 22.5385 14.6536 22.2856 14.6537 22.0325C14.6536 21.7794 14.6662 21.5265 14.6914 21.2747C14.7164 21.0258 14.7535 20.7805 14.8024 20.5397C14.8508 20.3006 14.9111 20.064 14.9829 19.8309L15.2296 19.1523L15.5383 18.5069L15.9059 17.8988L16.3288 17.3317L16.8032 16.8089L17.3256 16.3342L17.8922 15.9109L18.4984 15.5431L19.143 15.2338C19.3648 15.1405 19.5912 15.0581 19.8211 14.9871L20.5293 14.8064C20.7699 14.7575 21.0149 14.7202 21.2623 14.6952C21.5139 14.67 21.7667 14.6573 22.0195 14.6574L22.0194 14.6572Z" fill="#1C1C1C"/>
<path id="Vector_2" d="M33.728 7.56665C33.6386 7.56667 33.5494 7.57119 33.4605 7.58021C33.3716 7.58921 33.2832 7.60269 33.1956 7.6206C33.108 7.63848 33.0214 7.66078 32.9361 7.68739C32.8507 7.71402 32.7668 7.74494 32.6845 7.78003C32.6022 7.81516 32.5217 7.85442 32.4433 7.89766C32.3649 7.94081 32.2887 7.9879 32.2149 8.03873C32.1412 8.08962 32.07 8.1442 32.0017 8.20226C31.9333 8.26026 31.8679 8.32167 31.8057 8.38626C31.7435 8.45089 31.6845 8.51862 31.629 8.58919C31.5734 8.65977 31.5214 8.7331 31.4732 8.80892C31.425 8.88468 31.3805 8.96282 31.34 9.04305C31.2994 9.12335 31.2629 9.20564 31.2305 9.28961C31.1981 9.37358 31.1699 9.45912 31.146 9.54592C31.1221 9.63271 31.1026 9.72066 31.0874 9.80943C31.0722 9.89817 31.0614 9.98762 31.0551 10.0775C31.0506 10.1411 31.0484 10.2049 31.0483 10.2687C31.0483 10.3588 31.0528 10.4488 31.0617 10.5385C31.0707 10.6281 31.084 10.7173 31.1018 10.8056C31.1195 10.8938 31.1416 10.9812 31.168 11.0672C31.1944 11.1533 31.2251 11.238 31.2599 11.321C31.2947 11.404 31.3336 11.4852 31.3765 11.5643C31.4193 11.6434 31.466 11.7203 31.5165 11.7946C31.5669 11.8689 31.621 11.9407 31.6786 12.0096C31.7361 12.0785 31.797 12.1445 31.8611 12.2073C31.9252 12.27 31.9924 12.3295 32.0624 12.3855C32.1324 12.4415 32.2051 12.4939 32.2803 12.5426C32.3555 12.5913 32.4331 12.6362 32.5128 12.6771C32.5924 12.718 32.674 12.7548 32.7572 12.7875C32.8405 12.8201 32.9253 12.8486 33.0114 12.8727C33.0974 12.8967 33.1847 12.9164 33.2727 12.9317C33.3607 12.947 33.4494 12.9579 33.5385 12.9643C33.6016 12.9688 33.6649 12.9711 33.7281 12.9711C33.8175 12.9711 33.9068 12.9666 33.9957 12.9577C34.0846 12.9487 34.173 12.9352 34.2605 12.9173C34.3481 12.8994 34.4347 12.8771 34.5201 12.8505C34.6054 12.8239 34.6894 12.7929 34.7717 12.7579C34.854 12.7228 34.9345 12.6836 35.0129 12.6404C35.0913 12.5972 35.1675 12.55 35.2412 12.4991C35.315 12.4483 35.3861 12.3938 35.4545 12.3358C35.5228 12.2777 35.5882 12.2163 35.6504 12.1516C35.7127 12.087 35.7717 12.0193 35.8272 11.9487C35.8827 11.8781 35.9347 11.8048 35.9829 11.729C36.0312 11.6532 36.0757 11.575 36.1162 11.4947C36.1567 11.4144 36.1933 11.3321 36.2257 11.2481C36.258 11.1642 36.2862 11.0786 36.3101 10.9918C36.334 10.905 36.3536 10.8171 36.3688 10.7283C36.3839 10.6396 36.3947 10.5501 36.401 10.4603C36.4055 10.3966 36.4078 10.3329 36.4078 10.2691C36.4078 10.179 36.4033 10.089 36.3944 9.99936C36.3855 9.90973 36.3721 9.82061 36.3544 9.73232C36.3366 9.64404 36.3145 9.55671 36.2881 9.47065C36.2617 9.38457 36.231 9.29988 36.1962 9.21689C36.1614 9.13387 36.1225 9.05267 36.0796 8.97357C36.0368 8.89449 35.9901 8.81763 35.9397 8.74325C35.8892 8.66888 35.835 8.5971 35.7774 8.52818C35.7199 8.45926 35.6591 8.39327 35.595 8.33048C35.5309 8.26773 35.4637 8.20825 35.3937 8.15227C35.3237 8.09629 35.251 8.04389 35.1758 7.99524C35.1006 7.94654 35.023 7.90167 34.9434 7.8608C34.8638 7.8199 34.7822 7.78305 34.6989 7.75037C34.6157 7.71773 34.5309 7.68931 34.4448 7.66522C34.3587 7.64111 34.2715 7.62137 34.1834 7.60605C34.0954 7.59076 34.0067 7.57992 33.9176 7.57357C33.8545 7.56905 33.7913 7.56679 33.728 7.56679V7.56665Z" fill="#1C1C1C"/>
<path id="Vector_3" d="M19.8855 0.000410671C18.6616 -0.00156634 17.5695 0.00351671 16.5884 0.0173558L13.9581 0.0879632C13.1788 0.121855 12.4904 0.166052 11.8724 0.223244C11.5634 0.251769 11.2719 0.283684 10.9956 0.318847C10.7327 0.352043 10.4705 0.390699 10.2092 0.434786C9.96042 0.477151 9.72431 0.522902 9.49792 0.572609C9.27154 0.622317 9.05531 0.675981 8.84669 0.733596C8.64274 0.789936 8.44038 0.851907 8.23985 0.919437C8.04335 0.985807 7.85165 1.05613 7.66234 1.13126C7.28372 1.28151 6.9144 1.45012 6.53409 1.63906C6.24145 1.78452 5.97109 1.9318 5.71426 2.0877C5.45743 2.24361 5.21413 2.40826 4.97591 2.58761C4.73058 2.7732 4.49411 2.97027 4.2673 3.17817C4.0302 3.39451 3.78803 3.63245 3.53642 3.89836C3.22024 4.23064 2.94551 4.54047 2.70165 4.8445C2.57972 4.99645 2.46554 5.1467 2.35799 5.2978C2.25162 5.44671 2.14994 5.59892 2.05309 5.75421C1.95724 5.90813 1.86646 6.06488 1.77963 6.22615C1.69144 6.39019 1.6081 6.55681 1.5297 6.72577C1.36929 7.0709 1.21959 7.44257 1.07017 7.85746C0.959324 8.16418 0.860064 8.47498 0.772605 8.7892C0.683377 9.11032 0.604016 9.44627 0.533254 9.80962C0.462492 10.173 0.400751 10.5637 0.346481 10.9958C0.287999 11.4695 0.24128 11.9445 0.206366 12.4205C0.166897 12.9439 0.134194 13.5198 0.107412 14.1607L0.0439797 16.2919L0.0098672 18.8899L0 22.0301L0.0288969 26.5965L0.119112 30.0563L0.188605 31.4077L0.275437 32.5276C0.303272 32.8294 0.338099 33.1306 0.379889 33.4308C0.417948 33.6974 0.458827 33.9307 0.502806 34.1326C0.592044 34.5432 0.697567 34.95 0.819122 35.3521C0.935509 35.7372 1.06861 36.1169 1.21804 36.4903C1.36492 36.8561 1.52562 37.2088 1.70041 37.5483C1.8752 37.8878 2.06409 38.214 2.26707 38.5274C2.47005 38.8407 2.68713 39.1412 2.91887 39.4289C3.15035 39.7165 3.39656 39.992 3.65652 40.2541C3.91687 40.5168 4.19146 40.7667 4.48085 41.0043C4.77367 41.2445 5.07804 41.4702 5.39287 41.6807C5.68508 41.8764 5.97419 42.0556 6.26542 42.2201C6.55664 42.3846 6.8504 42.5339 7.15234 42.6696C7.45428 42.8053 7.76383 42.9275 8.08719 43.0373C8.41055 43.1472 8.74745 43.2449 9.10352 43.3316C9.45958 43.4183 9.83651 43.4944 10.2354 43.5608C10.6343 43.6272 11.0608 43.6841 11.5163 43.7331C11.9719 43.7821 12.458 43.8226 12.9802 43.8565C13.5025 43.8904 14.0607 43.9175 14.6605 43.9393C15.587 43.9729 16.9896 43.9925 18.6069 44L23.8429 43.9894L28.8011 43.9198L30.6863 43.8667L31.9145 43.8034C32.1781 43.782 32.436 43.7565 32.685 43.7267C32.9339 43.6969 33.1794 43.6629 33.4185 43.6242C33.6576 43.5855 33.8913 43.5423 34.1209 43.4943C34.3479 43.447 34.5737 43.3941 34.7981 43.3357C35.0202 43.2792 35.2393 43.215 35.4561 43.1468C35.6729 43.0786 35.8874 43.0049 36.1007 42.9258C36.3152 42.8462 36.5277 42.7614 36.7381 42.6714C36.95 42.5811 37.1616 42.4845 37.3739 42.382C37.6999 42.2246 37.9624 42.0935 38.1928 41.9654C38.4096 41.8462 38.6184 41.713 38.8179 41.5666C39.0146 41.4214 39.2103 41.2562 39.4358 41.048C39.6614 40.8399 39.9169 40.5891 40.2334 40.2719C40.5115 39.9935 40.7461 39.7514 40.9483 39.5313C41.1506 39.3111 41.321 39.113 41.4705 38.9221C41.6129 38.7409 41.7456 38.5522 41.868 38.3569C41.9874 38.1663 42.0973 37.9683 42.2094 37.7487C42.378 37.4183 42.528 37.1122 42.6623 36.817C42.7927 36.5324 42.9119 36.2428 43.0195 35.9488C43.1255 35.6571 43.2173 35.3604 43.2945 35.0598C43.374 34.7506 43.4425 34.4241 43.5017 34.066C43.5609 33.7078 43.611 33.3181 43.6544 32.8829C43.6978 32.4476 43.7347 31.9667 43.7671 31.4262L43.8531 29.612L43.927 27.3558L43.9797 24.8422L44 22.2139L43.9529 17.0518L43.8899 14.7397L43.8039 12.7545L43.6968 11.2068C43.6579 10.7761 43.6159 10.4369 43.5713 10.2076C43.5221 9.95417 43.467 9.70194 43.4061 9.45107C43.3469 9.20697 43.2818 8.96434 43.2109 8.72339C43.1418 8.48865 43.0667 8.25571 42.9856 8.0248C42.9056 7.79674 42.8207 7.57348 42.7319 7.35502C42.6431 7.13656 42.547 6.92319 42.4469 6.71433C42.3468 6.50547 42.2419 6.3017 42.1319 6.10259C42.0218 5.90347 41.907 5.7093 41.7871 5.51993C41.6671 5.33056 41.5422 5.146 41.4121 4.96637C41.2827 4.78732 41.1478 4.61236 41.0075 4.44176C40.868 4.27209 40.7231 4.10688 40.5731 3.94638C40.4233 3.78608 40.2685 3.63057 40.1089 3.48009C39.9492 3.32955 39.7847 3.18382 39.615 3.04288C39.4447 2.90148 39.27 2.76543 39.0912 2.63491C38.9105 2.50306 38.7259 2.37676 38.5375 2.25618C38.3466 2.13388 38.152 2.01728 37.9542 1.90653C37.7529 1.79392 37.5484 1.68712 37.341 1.58625C36.9968 1.41863 36.6785 1.26993 36.366 1.13804C36.0588 1.00714 35.7456 0.890882 35.4275 0.789659C35.1075 0.68869 34.7744 0.602127 34.4079 0.527424C34.0414 0.452721 33.6418 0.390445 33.1895 0.33749C32.7371 0.284534 32.232 0.241747 31.6544 0.206161C31.0767 0.170575 30.427 0.142612 29.6852 0.120018L27.1639 0.0635324L23.973 0.0258283L19.8869 0.000690791L19.8855 0.000410671ZM22.0076 3.8841L27.9002 3.91771L30.1231 3.96064C30.7353 3.97787 31.2025 3.99806 31.4764 4.02136C31.833 4.05144 32.1727 4.08914 32.4976 4.13433C32.8094 4.17747 33.1197 4.23111 33.428 4.29518C33.724 4.35731 34.0063 4.42792 34.2765 4.50757C34.5468 4.58721 34.8049 4.67646 35.0525 4.77517C35.3002 4.87387 35.537 4.98247 35.7649 5.10137C35.991 5.21938 36.2108 5.34924 36.4232 5.49042C36.6347 5.63093 36.8385 5.78231 37.0364 5.94541C37.2343 6.10852 37.4262 6.28334 37.6135 6.47031C37.8113 6.66759 37.9937 6.86854 38.1618 7.07584C38.3294 7.28186 38.4844 7.49779 38.626 7.72246C38.7693 7.95034 38.8984 8.18685 39.0125 8.43065C39.1292 8.67919 39.2341 8.94185 39.3283 9.22103C39.4224 9.50022 39.5063 9.79691 39.5806 10.1139C39.6584 10.45 39.7236 10.789 39.776 11.13C39.8324 11.4915 39.8806 11.877 39.9214 12.2898C39.9623 12.7025 39.9962 13.1427 40.0241 13.6137C40.0463 13.9914 40.0658 14.4899 40.0823 15.0786L40.1236 17.086L40.1552 22.0031L40.1192 26.9155L40.0761 28.9171L40.0167 30.3729C39.9756 31.0546 39.9322 31.6276 39.8803 32.1264C39.8542 32.3758 39.826 32.6065 39.7947 32.823C39.7654 33.0275 39.7307 33.2312 39.6906 33.4339C39.6539 33.6188 39.6114 33.8024 39.563 33.9846C39.5167 34.1585 39.4645 34.3307 39.4067 34.501C39.3484 34.6722 39.285 34.8415 39.2165 35.0088C39.1441 35.1855 39.0678 35.3605 38.9874 35.5337C38.916 35.6884 38.8408 35.8388 38.7613 35.9852C38.6827 36.1302 38.5992 36.2724 38.511 36.4117C38.4236 36.5496 38.332 36.6837 38.2361 36.8134C38.1408 36.9428 38.0408 37.0686 37.9364 37.1908C37.8324 37.3124 37.7239 37.4301 37.6112 37.5438C37.4985 37.6575 37.3815 37.7672 37.2603 37.8731C37.139 37.979 37.0133 38.0807 36.8832 38.1787C36.7531 38.2767 36.6185 38.3708 36.4793 38.4608C36.3402 38.5509 36.1967 38.6374 36.0486 38.7198C35.9004 38.8023 35.7476 38.8811 35.5904 38.9561C35.4305 39.0322 35.2684 39.1035 35.1043 39.1699C34.9346 39.2385 34.763 39.3023 34.5898 39.3612C34.2374 39.4815 33.8656 39.5872 33.4743 39.6783C33.0665 39.7726 32.6549 39.8498 32.2406 39.9096C32.0814 39.9329 31.7153 39.9548 31.1909 39.9751L29.1927 40.0307L23.5274 40.1044L17.5978 40.1138L15.2691 40.0889L13.757 40.0417L12.6421 39.9632C12.2959 39.934 11.9739 39.9015 11.6722 39.8647C11.3706 39.8278 11.0897 39.7867 10.8254 39.7404C10.5749 39.697 10.326 39.6452 10.079 39.5851C9.85376 39.5302 9.63086 39.4662 9.41081 39.3933C9.19867 39.3227 8.99582 39.245 8.79848 39.1596C8.60113 39.0741 8.40943 38.9805 8.21955 38.8783C8.02968 38.776 7.84178 38.665 7.65176 38.544C7.50841 38.4528 7.36984 38.3604 7.23649 38.2626C7.10315 38.1647 6.97431 38.0671 6.85026 37.9649C6.72622 37.8627 6.6071 37.7573 6.49222 37.6489C6.3781 37.5409 6.2679 37.4289 6.16181 37.313C6.05609 37.1975 5.95502 37.0786 5.85804 36.9555C5.76068 36.8319 5.66792 36.7047 5.57992 36.5742C5.49063 36.4417 5.40614 36.3061 5.32662 36.1675C5.24627 36.0277 5.16987 35.8831 5.09728 35.734C5.02347 35.582 4.95459 35.4277 4.89077 35.2712C4.82593 35.1119 4.76447 34.9476 4.70667 34.7778C4.59109 34.4382 4.48959 34.0767 4.40135 33.6912C4.31311 33.3057 4.23784 32.8961 4.17413 32.4598C4.11041 32.0234 4.0591 31.5608 4.01822 31.0691C3.98806 30.7069 3.96409 30.1427 3.94577 29.431L3.90743 26.8997L3.92152 20.4469L4.03246 14.2809L4.11704 12.1085L4.16496 11.3904C4.1816 11.1986 4.19879 11.0565 4.21641 10.9713C4.27449 10.6907 4.33299 10.4296 4.39346 10.1851C4.44995 9.9545 4.5128 9.7255 4.58192 9.49838C4.64761 9.28402 4.71682 9.08321 4.79083 8.89299C4.86219 8.70873 4.94172 8.52774 5.02919 8.35058C5.11461 8.1783 5.20638 8.01336 5.30604 7.8528C5.4057 7.69224 5.51325 7.53648 5.63053 7.38157C5.74781 7.22666 5.87411 7.07372 6.01155 6.91867C6.14898 6.76361 6.29741 6.60701 6.45839 6.4456C6.646 6.25658 6.84135 6.07543 7.04394 5.90263C7.23523 5.73959 7.43472 5.58645 7.64161 5.44382C7.84502 5.3026 8.05364 5.17692 8.27086 5.06141C8.48808 4.9459 8.7139 4.84154 8.95142 4.74763C9.18894 4.65372 9.43844 4.5697 9.70274 4.49344C9.98041 4.41542 10.2612 4.34885 10.5443 4.29391C10.842 4.23544 11.1582 4.18446 11.4958 4.13998C11.8334 4.0955 12.1925 4.05709 12.5765 4.02376C12.8443 4.0006 13.3058 3.97998 13.9135 3.96262L16.1252 3.91884L22.0086 3.88283L22.0076 3.8841Z" fill="#1C1C1C"/>
</g>
</svg>
