<svg width="25" height="25" viewBox="0 0 25 25" fill="none" xmlns="http://www.w3.org/2000/svg">
<g id="dbt-icon logo" clip-path="url(#clip0_263_5898)">
<g id="Group">
<path id="Vector" d="M23.9161 1.16518C24.4803 1.70768 24.8492 2.42377 24.936 3.20497C24.936 3.53046 24.8492 3.74747 24.6539 4.15977C24.4586 4.57206 22.05 8.73843 21.3339 9.88851C20.9216 10.5612 20.7046 11.3641 20.7046 12.1453C20.7046 12.9482 20.9216 13.7294 21.3339 14.4021C22.05 15.5522 24.4586 19.7402 24.6539 20.1525C24.8492 20.5648 24.936 20.7601 24.936 21.0856C24.8492 21.8668 24.502 22.5829 23.9378 23.1037C23.3953 23.6679 22.6793 24.0368 21.9198 24.1019C21.5943 24.1019 21.3773 24.0151 20.9867 23.8198C20.5961 23.6245 16.3429 21.2809 15.1928 20.5648C15.106 20.5214 15.0192 20.4563 14.9107 20.4129L9.22537 17.0494C9.35556 18.1344 9.83297 19.176 10.6141 19.9355C10.7661 20.0874 10.918 20.2176 11.0916 20.3478C10.9613 20.4129 10.8094 20.478 10.6793 20.5648C9.52915 21.2809 5.3411 23.6896 4.92881 23.8849C4.51652 24.0802 4.32121 24.167 3.97401 24.167C3.19282 24.0802 2.47672 23.733 1.95593 23.1688C1.39173 22.6263 1.02283 21.9102 0.936035 21.129C0.957735 20.8035 1.04453 20.478 1.21813 20.1959C1.41343 19.7836 3.82211 15.5956 4.5382 14.4455C4.95051 13.7728 5.1675 12.9916 5.1675 12.1887C5.1675 11.3858 4.95051 10.6046 4.5382 9.9319C3.82211 8.73843 1.39173 4.55035 1.21813 4.13806C1.04453 3.85595 0.957735 3.53046 0.936035 3.20497C1.02283 2.42377 1.37003 1.70768 1.93423 1.16518C2.47672 0.600989 3.19282 0.253791 3.97401 0.166992C4.2995 0.188692 4.62499 0.275491 4.92881 0.449091C5.27601 0.60099 8.33566 2.38037 9.96316 3.33518L10.3321 3.55217C10.4622 3.63897 10.5708 3.70406 10.6576 3.74747L10.8312 3.85595L16.625 7.28454C16.4948 5.98254 15.8221 4.78905 14.7805 3.98617C14.9107 3.92107 15.0626 3.85595 15.1928 3.76915C16.3429 3.05307 20.531 0.622688 20.9433 0.449091C21.2254 0.275491 21.5509 0.188692 21.8981 0.166992C22.6576 0.253791 23.3737 0.600989 23.9161 1.16518ZM13.2398 13.7077L14.4767 12.4708C14.6503 12.2972 14.6503 12.0368 14.4767 11.8632L13.2398 10.6263C13.0662 10.4527 12.8058 10.4527 12.6322 10.6263L11.3953 11.8632C11.2217 12.0368 11.2217 12.2972 11.3953 12.4708L12.6322 13.7077C12.7841 13.8596 13.0662 13.8596 13.2398 13.7077Z" fill="#FF694A"/>
<g id="Rectangle 249" style="mix-blend-mode:saturation">
<rect x="0.8396" y="0.166992" width="24" height="24" fill="white"/>
</g>
</g>
</g>
<defs>
<clipPath id="clip0_263_5898">
<rect width="24" height="24" fill="white" transform="translate(0.936035 0.166992)"/>
</clipPath>
</defs>
</svg>
