<svg width="90" height="64" viewBox="0 0 90 64" fill="none" xmlns="http://www.w3.org/2000/svg">
<path d="M88.922 24.2019C88.6738 23.9951 86.4398 22.2989 81.6408 22.2989C80.3997 22.2989 79.1172 22.423 77.8761 22.6298C76.966 16.3002 71.7119 13.2388 71.5051 13.0733L70.2226 12.3286L69.3952 13.5284C68.3609 15.1418 67.5749 16.9621 67.1198 18.8238C66.251 22.423 66.7889 25.8154 68.6092 28.7113C66.4165 29.9524 62.8587 30.242 62.114 30.2834H3.36804C1.83733 30.2834 0.59622 31.5245 0.59622 33.0552C0.513479 38.1851 1.38226 43.315 3.16118 48.1554C5.18833 53.4508 8.20837 57.381 12.0972 59.7804C16.4825 62.4695 23.6395 64.0002 31.7068 64.0002C35.3474 64.0002 38.9879 63.6693 42.5872 63.0073C47.593 62.0972 52.392 60.3596 56.8186 57.836C60.4592 55.7262 63.7274 53.0371 66.4993 49.8929C71.1741 44.6389 73.9459 38.7643 75.9731 33.5516H76.8005C81.8891 33.5516 85.0332 31.5245 86.7708 29.7869C87.9291 28.7113 88.7979 27.3874 89.4185 25.8981L89.7908 24.8225L88.922 24.2019Z" fill="#0091E2"/>
<path d="M8.82927 28.5869H16.6896C17.062 28.5869 17.3929 28.2973 17.3929 27.8836V20.8507C17.3929 20.4783 17.1034 20.1474 16.6896 20.1474H8.82927C8.45694 20.1474 8.12598 20.437 8.12598 20.8507V27.8836C8.16735 28.2973 8.45694 28.5869 8.82927 28.5869ZM19.6683 28.5869H27.5287C27.901 28.5869 28.232 28.2973 28.232 27.8836V20.8507C28.232 20.4783 27.9424 20.1474 27.5287 20.1474H19.6683C19.296 20.1474 18.965 20.437 18.965 20.8507V27.8836C19.0064 28.2973 19.296 28.5869 19.6683 28.5869ZM30.7142 28.5869H38.5746C38.9469 28.5869 39.2779 28.2973 39.2779 27.8836V20.8507C39.2779 20.4783 38.9883 20.1474 38.5746 20.1474H30.7142C30.3419 20.1474 30.0109 20.437 30.0109 20.8507V27.8836C30.0109 28.2973 30.3005 28.5869 30.7142 28.5869ZM41.5946 28.5869H49.455C49.8273 28.5869 50.1583 28.2973 50.1583 27.8836V20.8507C50.1583 20.4783 49.8687 20.1474 49.455 20.1474H41.5946C41.2223 20.1474 40.8913 20.437 40.8913 20.8507V27.8836C40.8913 28.2973 41.2223 28.5869 41.5946 28.5869ZM19.6683 18.5339H27.5287C27.901 18.5339 28.232 18.203 28.232 17.8306V10.7977C28.232 10.4253 27.9424 10.0944 27.5287 10.0944H19.6683C19.296 10.0944 18.965 10.384 18.965 10.7977V17.8306C19.0064 18.203 19.296 18.5339 19.6683 18.5339ZM30.7142 18.5339H38.5746C38.9469 18.5339 39.2779 18.203 39.2779 17.8306V10.7977C39.2779 10.4253 38.9883 10.0944 38.5746 10.0944H30.7142C30.3419 10.0944 30.0109 10.384 30.0109 10.7977V17.8306C30.0109 18.203 30.3005 18.5339 30.7142 18.5339ZM41.5946 18.5339H49.455C49.8273 18.5339 50.1583 18.203 50.1583 17.8306V10.7977C50.1583 10.4253 49.8273 10.0944 49.455 10.0944H41.5946C41.2223 10.0944 40.8913 10.384 40.8913 10.7977V17.8306C40.8913 18.203 41.2223 18.5339 41.5946 18.5339ZM41.5946 8.43956H49.455C49.8273 8.43956 50.1583 8.14997 50.1583 7.73627V0.703302C50.1583 0.330968 49.8273 0 49.455 0L41.5946 0C41.2223 0 40.8913 0.289598 40.8913 0.703302V7.73627C40.8913 8.1086 41.2223 8.43956 41.5946 8.43956ZM52.5578 28.5869H60.4182C60.7905 28.5869 61.1215 28.2973 61.1215 27.8836V20.8507C61.1215 20.4783 60.8319 20.1474 60.4182 20.1474H52.5578C52.1854 20.1474 51.8545 20.437 51.8545 20.8507V27.8836C51.8959 28.2973 52.1854 28.5869 52.5578 28.5869Z" fill="#0091E2"/>
</svg>
